<svg width="500" height="500" viewBox="0 0 500 500" fill="none" xmlns="http://www.w3.org/2000/svg">
<path d="M249.53 482.51C379.902 482.51 485.59 419.808 485.59 342.46C485.59 265.113 379.902 202.41 249.53 202.41C119.157 202.41 13.4697 265.113 13.4697 342.46C13.4697 419.808 119.157 482.51 249.53 482.51Z" fill="white"/>
<path d="M315.999 422.4C368.102 422.4 410.339 398.018 410.339 367.94C410.339 337.863 368.102 313.48 315.999 313.48C263.897 313.48 221.659 337.863 221.659 367.94C221.659 398.018 263.897 422.4 315.999 422.4Z" fill="#E0E0E0"/>
<path d="M175.08 396.27L151.24 382.51L131.8 393.73L135.04 384.38L115.61 388.12L138.28 375L65.8596 333.22C65.6089 333.136 65.391 332.976 65.2365 332.761C65.0821 332.547 64.999 332.289 64.999 332.025C64.999 331.761 65.0821 331.503 65.2365 331.289C65.391 331.074 65.6089 330.914 65.8596 330.83L236.86 232.47C237.503 232.145 238.214 231.976 238.935 231.976C239.655 231.976 240.366 232.145 241.01 232.47L350 295.3C350.25 295.384 350.468 295.544 350.623 295.759C350.777 295.973 350.86 296.231 350.86 296.495C350.86 296.759 350.777 297.017 350.623 297.231C350.468 297.446 350.25 297.606 350 297.69L179.22 396.27C178.578 396.595 177.869 396.765 177.15 396.765C176.43 396.765 175.721 396.595 175.08 396.27Z" fill="#E0E0E0"/>
<path d="M84.78 336.81L87.31 335.35L85.48 334.53C85.48 334.53 84 334.91 84 335C84.01 335.336 84.0434 335.67 84.1 336L84.78 336.81Z" fill="#008E4A"/>
<path opacity="0.5" d="M84.78 336.81L87.31 335.35L85.48 334.53C85.48 334.53 84 334.91 84 335C84.01 335.336 84.0434 335.67 84.1 336L84.78 336.81Z" fill="black"/>
<path d="M181.171 385.37C180.024 385.951 178.756 386.255 177.471 386.255C176.185 386.255 174.917 385.951 173.771 385.37L90.6807 337.37L215.051 265.56L217.961 263.88L301.041 311.88C303.041 313.06 303.041 314.98 301.041 316.15L181.171 385.37Z" fill="#008E4A"/>
<path d="M150.001 294.75L121.001 311.43L102.241 300.6L80.4209 313.21V328.93C80.4209 330.84 82.5609 333.55 83.3409 333.11C84.7783 333.458 86.1758 333.954 87.5109 334.59C89.6804 335.83 91.6945 337.324 93.5109 339.04L160.081 300.61L150.001 294.75Z" fill="#008E4A"/>
<path opacity="0.15" d="M150.001 294.75L121.001 311.43L102.241 300.6L80.4209 313.21V328.93C80.4209 330.84 82.5609 333.55 83.3409 333.11C84.7783 333.458 86.1758 333.954 87.5109 334.59C89.6804 335.83 91.6945 337.324 93.5109 339.04L160.081 300.61L150.001 294.75Z" fill="black"/>
<path opacity="0.4" d="M80.4209 328.93C80.4209 330.72 82.2909 333.21 83.1709 333.15H83.2509H83.3409C83.4009 333.15 85.9809 331.51 86.2609 331.47L88.7709 323.18C88.7709 323.18 88.6209 313.49 88.7709 313.49C88.2894 312.094 87.7319 310.725 87.1009 309.39L80.4209 313.25V328.93Z" fill="black"/>
<path d="M173.761 385.37L168.761 382.46L93.5306 339C93.4764 338.02 93.1279 337.079 92.5306 336.3C91.6369 335.127 90.5184 334.145 89.2406 333.41C88.1689 332.748 86.9482 332.367 85.6906 332.3C84.847 332.291 84.0242 332.562 83.3506 333.07C82.3986 331.152 81.9349 329.029 82.0006 326.89H79.1006C79.1006 330.82 80.4006 334.76 81.9906 335.67L83.4306 336.51C84.2406 336.98 84.8906 337.01 84.8906 336.57V335.8C84.8906 334.95 86.1806 334.99 87.7906 335.92C89.4006 336.85 90.6806 338.28 90.6806 339.14V339.9C90.6806 340.35 91.7906 341.33 93.1506 342.11L165.891 384.11L173.761 388.65C174.899 389.241 176.167 389.54 177.451 389.52V386.23C176.167 386.263 174.897 385.967 173.761 385.37Z" fill="#008E4A"/>
<path opacity="0.3" d="M173.761 385.37L168.761 382.46L93.5306 339C93.4764 338.02 93.1279 337.079 92.5306 336.3C91.6369 335.127 90.5184 334.145 89.2406 333.41C88.1689 332.748 86.9482 332.367 85.6906 332.3C84.847 332.291 84.0242 332.562 83.3506 333.07C82.3986 331.152 81.9349 329.029 82.0006 326.89H79.1006C79.1006 330.82 80.4006 334.76 81.9906 335.67L83.4306 336.51C84.2406 336.98 84.8906 337.01 84.8906 336.57V335.8C84.8906 334.95 86.1806 334.99 87.7906 335.92C89.4006 336.85 90.6806 338.28 90.6806 339.14V339.9C90.6806 340.35 91.7906 341.33 93.1506 342.11L165.891 384.11L173.761 388.65C174.899 389.241 176.167 389.54 177.451 389.52V386.23C176.167 386.263 174.897 385.967 173.761 385.37Z" fill="black"/>
<path d="M302.56 314V317.34C302.526 317.79 302.373 318.222 302.116 318.593C301.86 318.964 301.509 319.26 301.1 319.45H301.04L189 384.12L181.14 388.66C180.001 389.251 178.733 389.55 177.45 389.53V386.24C178.739 386.271 180.013 385.968 181.15 385.36L186.15 382.47L301 316.15C301.435 315.972 301.811 315.677 302.086 315.297C302.362 314.917 302.526 314.468 302.56 314Z" fill="#008E4A"/>
<path opacity="0.2" d="M302.56 314V317.34C302.526 317.79 302.373 318.222 302.116 318.593C301.86 318.964 301.509 319.26 301.1 319.45H301.04L189 384.12L181.14 388.66C180.001 389.251 178.733 389.55 177.45 389.53V386.24C178.739 386.271 180.013 385.968 181.15 385.36L186.15 382.47L301 316.15C301.435 315.972 301.811 315.677 302.086 315.297C302.362 314.917 302.526 314.468 302.56 314Z" fill="black"/>
<path d="M177.471 364.08V383.28C176.61 383.302 175.758 383.099 175.001 382.69L165.891 377.44L96.4707 337.35V317.3L177.471 364.08Z" fill="#EBEBEB"/>
<path opacity="0.15" d="M135.101 350.77L154.541 362C154.541 362 152.541 359.9 144.821 355.5C137.341 351.23 135.101 350.77 135.101 350.77Z" fill="black"/>
<path d="M299 296.33V311.12C298.953 311.975 298.706 312.806 298.279 313.548C297.851 314.289 297.256 314.92 296.54 315.39L189 377.44L179.9 382.69C179.146 383.098 178.298 383.301 177.44 383.28V366.11L299 296.33Z" fill="#F5F5F5"/>
<path d="M92.4007 315V332C92.3153 331.94 92.225 331.886 92.1307 331.84C91.0662 331.17 89.8472 330.784 88.5907 330.72C87.7499 330.71 86.9298 330.981 86.2607 331.49V311.49L92.4007 315Z" fill="#37474F"/>
<path d="M96.46 337.36C96.4095 336.379 96.0606 335.437 95.46 334.66C95.1592 334.243 94.8248 333.852 94.46 333.49L94.11 333.16L93.66 332.77L93.28 332.49C93.0185 332.29 92.7446 332.106 92.46 331.94V315L96.46 317.35V337.36Z" fill="#E0E0E0"/>
<path d="M215.05 242.15L90.6805 314V315.66C90.6805 316.59 89.3905 316.93 87.7905 316.01C86.1905 315.09 84.8905 313.93 84.8905 312.33L84.7305 310.75L211.45 237.6L211.96 237.3C212.096 237.535 212.171 237.799 212.18 238.07V238.84C212.18 239.73 213.46 241.21 215.05 242.15Z" fill="#008E4A"/>
<path opacity="0.1" d="M215.05 242.15L90.6805 314V315.66C90.6805 316.59 89.3905 316.93 87.7905 316.01C86.1905 315.09 84.8905 313.93 84.8905 312.33L84.7305 310.75L211.45 237.6L211.96 237.3C212.096 237.535 212.171 237.799 212.18 238.07V238.84C212.18 239.73 213.46 241.21 215.05 242.15Z" fill="black"/>
<path d="M173.77 361.94L92.5204 315C91.5204 314.46 90.5204 314 90.1504 314.23L90.6804 313.94L215.05 242.12L216.51 241.29C217.31 240.82 219.06 241.08 220.43 241.87L301 288.44C303 289.63 303 291.55 301 292.72L181.17 361.94C180.024 362.521 178.756 362.824 177.47 362.824C176.185 362.824 174.917 362.521 173.77 361.94Z" fill="#102C46"/>
<path d="M212 237.27L211.49 237.57L84.7304 310.72C84.6664 310.589 84.5742 310.472 84.4604 310.38L84.0304 310.14L83.1204 309.61L82.0004 309C81.7833 308.855 81.5227 308.788 81.2624 308.812C81.002 308.835 80.7577 308.948 80.5704 309.13C80.5113 309.162 80.4601 309.206 80.4204 309.26C80.2702 309.419 80.1424 309.597 80.0404 309.79C79.9047 310.014 79.794 310.252 79.7104 310.5C79.6104 310.76 79.5304 311.04 79.4504 311.33C79.3704 311.62 79.3304 311.95 79.2704 312.33C79.2317 312.525 79.2083 312.722 79.2004 312.92C79.2004 313.07 79.2004 313.22 79.2004 313.39C79.2004 313.74 79.1504 314.11 79.1504 314.5V310.94C79.1504 308.94 80.8204 306.42 82.8604 305.24L202.74 236.02C204.79 234.84 207.74 234.64 209.34 235.55L210.85 236.43C210.95 236.5 211.21 236.64 211.49 236.8C211.703 236.903 211.88 237.067 212 237.27Z" fill="#008E4A"/>
<path d="M173.79 362L168.79 359.09L111 325.69L92.5204 315C91.2104 314.23 90.1404 314 90.0704 314.35C90.0657 314.366 90.0657 314.383 90.0704 314.4V315.24C90.0704 316.16 88.7704 316.16 87.1704 315.24C85.5704 314.32 84.9204 313.24 84.9004 312.33V311.42C84.9152 311.219 84.8841 311.017 84.8096 310.83C84.7351 310.643 84.6191 310.475 84.4704 310.34L84.0404 310.1L83.1304 309.57L82.0004 309C81.7833 308.854 81.5227 308.788 81.2624 308.811C81.002 308.835 80.7577 308.947 80.5704 309.13C80.5113 309.161 80.4601 309.206 80.4204 309.26C80.3206 309.36 80.2363 309.475 80.1704 309.6C80.1181 309.657 80.0743 309.721 80.0404 309.79C79.9047 310.014 79.794 310.252 79.7104 310.5C79.6104 310.76 79.5304 311.04 79.4504 311.33C79.3704 311.62 79.3304 311.95 79.2704 312.33C79.2317 312.524 79.2083 312.722 79.2004 312.92C79.2004 313.07 79.2004 313.22 79.2004 313.39C79.2004 313.74 79.1504 314.11 79.1504 314.5V326.98H82.0004V314.41C82.0004 314.11 82.0004 313.81 82.0004 313.53L82.0704 312.81C82.0628 312.787 82.0628 312.762 82.0704 312.74C82.3204 315.01 84.4904 317.03 86.3704 318.1C87.4142 318.754 88.6098 319.126 89.8404 319.18C90.7769 319.19 91.6844 318.855 92.3904 318.24L92.6504 318.38L93.1504 318.68L165.89 360.68L173.76 365.22C173.76 365.22 173.76 365.22 173.81 365.22C174.937 365.794 176.187 366.082 177.45 366.06V362.77C176.185 362.822 174.927 362.557 173.79 362Z" fill="#008E4A"/>
<path opacity="0.3" d="M173.79 362L168.79 359.09L111 325.69L92.5204 315C91.2104 314.23 90.1404 314 90.0704 314.35C90.0657 314.366 90.0657 314.383 90.0704 314.4V315.24C90.0704 316.16 88.7704 316.16 87.1704 315.24C85.5704 314.32 84.9204 313.24 84.9004 312.33V311.42C84.9152 311.219 84.8841 311.017 84.8096 310.83C84.7351 310.643 84.6191 310.475 84.4704 310.34L84.0404 310.1L83.1304 309.57L82.0004 309C81.7833 308.854 81.5227 308.788 81.2624 308.811C81.002 308.835 80.7577 308.947 80.5704 309.13C80.5113 309.161 80.4601 309.206 80.4204 309.26C80.3206 309.36 80.2363 309.475 80.1704 309.6C80.1181 309.657 80.0743 309.721 80.0404 309.79C79.9047 310.014 79.794 310.252 79.7104 310.5C79.6104 310.76 79.5304 311.04 79.4504 311.33C79.3704 311.62 79.3304 311.95 79.2704 312.33C79.2317 312.524 79.2083 312.722 79.2004 312.92C79.2004 313.07 79.2004 313.22 79.2004 313.39C79.2004 313.74 79.1504 314.11 79.1504 314.5V326.98H82.0004V314.41C82.0004 314.11 82.0004 313.81 82.0004 313.53L82.0704 312.81C82.0628 312.787 82.0628 312.762 82.0704 312.74C82.3204 315.01 84.4904 317.03 86.3704 318.1C87.4142 318.754 88.6098 319.126 89.8404 319.18C90.7769 319.19 91.6844 318.855 92.3904 318.24L92.6504 318.38L93.1504 318.68L165.89 360.68L173.76 365.22C173.76 365.22 173.76 365.22 173.81 365.22C174.937 365.794 176.187 366.082 177.45 366.06V362.77C176.185 362.822 174.927 362.557 173.79 362Z" fill="black"/>
<path opacity="0.1" d="M220.431 241.9C219.061 241.11 217.311 240.85 216.511 241.32L215.061 242.15C213.461 241.21 212.181 239.73 212.181 238.81V238C212.171 237.729 212.096 237.465 211.961 237.23C211.863 237.02 211.707 236.843 211.511 236.72C211.231 236.56 210.971 236.42 210.871 236.35L209.361 235.47C207.761 234.56 204.811 234.76 202.761 235.94L82.8107 305.15L82.6807 305.24L167.381 354.14C168.145 354.528 168.989 354.729 169.846 354.729C170.702 354.729 171.547 354.528 172.311 354.14L293.001 283.79L220.431 241.9Z" fill="black"/>
<path d="M302.56 290.54V293.89C302.524 294.339 302.37 294.771 302.114 295.141C301.857 295.512 301.508 295.808 301.1 296H301.04L189 360.69L181.14 365.23C180 365.817 178.732 366.113 177.45 366.09V362.8C178.739 362.831 180.013 362.528 181.15 361.92L186.15 359.03L301 292.72C301.44 292.541 301.819 292.242 302.096 291.856C302.372 291.47 302.533 291.014 302.56 290.54Z" fill="#008E4A"/>
<path opacity="0.2" d="M302.56 290.54V293.89C302.524 294.339 302.37 294.771 302.114 295.141C301.857 295.512 301.508 295.808 301.1 296H301.04L189 360.69L181.14 365.23C180 365.817 178.732 366.113 177.45 366.09V362.8C178.739 362.831 180.013 362.528 181.15 361.92L186.15 359.03L301 292.72C301.44 292.541 301.819 292.242 302.096 291.856C302.372 291.47 302.533 291.014 302.56 290.54Z" fill="black"/>
<path d="M160.6 347.079L163.81 345.229C162.946 344.931 162.018 344.865 161.12 345.039C160.27 345.439 160.6 347.079 160.6 347.079Z" fill="black"/>
<path d="M158.4 345.06C158.763 344.663 159.204 344.347 159.695 344.13C160.187 343.914 160.718 343.802 161.255 343.802C161.792 343.802 162.323 343.914 162.815 344.13C163.306 344.347 163.747 344.663 164.11 345.06C167.23 347.92 167.39 350.76 168.68 350.71C169.97 350.66 170 327.85 170 327.85L157.71 339.28L158.4 345.06Z" fill="black"/>
<path d="M287.191 262.08L287.391 261.97L285.391 260.83L200.581 211.83L77.0005 291.84C75.0005 293.02 74.5905 294.72 76.1905 295.64L79.0805 297.3L158.361 343.09L158.921 342.69L287.191 262.08Z" fill="#008E4A"/>
<path d="M169 317.05L162.86 315.78V340.37C166.56 341.94 168.92 343.42 169.31 346.52L169 317.05Z" fill="#008E4A"/>
<path d="M160.101 340.69L81.5706 295.35C80.8519 294.88 80.2538 294.248 79.8247 293.505C79.3956 292.761 79.1476 291.927 79.1006 291.07V266.84L158.401 313C158.401 313 159.341 316.43 162.151 317.51C164.961 318.59 162.821 319.68 162.821 319.68V340.35C160.391 340.08 160.101 340.69 160.101 340.69Z" fill="#EBEBEB"/>
<path d="M167.351 316.209C166.531 315.739 165.891 315.709 165.891 316.149V316.919C165.891 317.769 164.601 317.729 162.991 316.799C161.381 315.869 160.081 314.439 160.081 313.589V312.819C160.081 312.369 158.991 311.389 157.631 310.609L285.411 237.399L287.411 238.539C287.679 238.833 287.847 239.204 287.891 239.599V240.369C287.891 241.229 289.191 242.659 290.791 243.589C292.391 244.519 293.691 244.589 293.691 243.699V242.939C293.691 242.489 294.331 242.519 295.141 242.989L167.351 316.209Z" fill="#37474F"/>
<path d="M287.191 238.659L287.391 238.539L285.391 237.399L200.581 188.399L77.0005 259.799C75.0005 260.979 74.5905 262.679 76.1905 263.599L79.0805 265.269L158.401 312.999L287.191 238.659Z" fill="#008E4A"/>
<path d="M293.7 242.189L166 315.899L170.47 319.399L297.73 245.919C297.418 244.975 296.825 244.148 296.03 243.549L293.7 242.189Z" fill="#008E4A"/>
<path d="M297.25 278.93C297.333 278.886 297.41 278.832 297.48 278.77C297.539 278.738 297.59 278.694 297.63 278.64C297.73 278.54 297.814 278.425 297.88 278.3C297.932 278.243 297.976 278.179 298.01 278.11C298.146 277.886 298.257 277.648 298.34 277.4C298.44 277.14 298.52 276.86 298.6 276.57C298.68 276.28 298.72 275.95 298.78 275.57C298.819 275.375 298.842 275.178 298.85 274.98C298.85 274.83 298.85 274.68 298.85 274.51C298.85 274.16 298.9 273.79 298.9 273.4V252.35C298.915 250.151 298.511 247.968 297.71 245.92L170.49 319.4L169.95 352.4L297.21 279L297.25 278.93Z" fill="#008E4A"/>
<path opacity="0.1" d="M170.49 319.4C170.49 319.4 270.72 272.49 279.84 268.19C285.84 265.35 288.84 271.31 287.39 277.48C286.14 282.87 280.83 288.42 280.83 288.42L297.21 279C297.293 278.956 297.37 278.902 297.44 278.84C297.499 278.808 297.551 278.764 297.59 278.71C297.69 278.61 297.774 278.495 297.84 278.37C297.892 278.313 297.936 278.249 297.97 278.18C298.106 277.956 298.217 277.718 298.3 277.47C298.4 277.21 298.48 276.93 298.56 276.64C298.64 276.35 298.68 276.02 298.74 275.64C298.779 275.445 298.802 275.248 298.81 275.05C298.81 274.9 298.81 274.75 298.81 274.58C298.81 274.23 298.86 273.86 298.86 273.47V252.35C298.875 250.151 298.471 247.968 297.67 245.92L170.49 319.4Z" fill="black"/>
<path d="M171.67 325.83H168.82C168.883 323.674 168.409 321.537 167.44 319.61C166.767 320.118 165.944 320.389 165.1 320.38C163.846 320.315 162.628 319.933 161.56 319.27C160.279 318.54 159.159 317.557 158.27 316.38C158.209 316.296 158.152 316.21 158.1 316.12C157.589 315.404 157.291 314.558 157.24 313.68L82.0004 270.26L79.4504 268.77L76.1904 266.89C75.9071 266.76 75.6644 266.555 75.4883 266.298C75.3121 266.041 75.2092 265.741 75.1904 265.43V262.09C75.2046 262.409 75.3052 262.717 75.4813 262.983C75.6574 263.249 75.9025 263.462 76.1904 263.6L84.8304 268.6L157.57 310.6C158.92 311.38 160.03 312.36 160.03 312.8V313.57C160.097 314.085 160.332 314.563 160.7 314.93C161.344 315.691 162.124 316.325 163 316.8C164.61 317.73 165.91 317.8 165.91 316.92V316.15C165.91 315.71 166.55 315.73 167.36 316.2L168.8 317.04C170.37 318 171.67 321.9 171.67 325.83Z" fill="#37474F"/>
<path d="M168.82 325.83V346.93C168.82 347.23 168.82 347.52 168.82 347.81L168.75 348.52C168.755 348.543 168.755 348.567 168.75 348.59C168.49 346.33 166.33 344.31 164.45 343.24C163.404 342.582 162.205 342.207 160.97 342.15C160.034 342.142 159.127 342.476 158.42 343.09L158.16 342.95L157.67 342.65L84.93 300.65L80.75 298.24C80.37 298.02 79.95 297.79 79.56 297.55L76.04 295.55C75.8054 295.404 75.6104 295.203 75.4725 294.964C75.3347 294.725 75.2582 294.456 75.25 294.18V297.51C75.2611 297.767 75.333 298.018 75.4599 298.242C75.5868 298.467 75.765 298.658 75.98 298.8C76.39 299.05 76.83 299.29 77.28 299.56L78.09 300.03L79.48 300.84C79.8 301.03 80.08 301.2 80.35 301.34L80.96 301.7L82.03 302.32L139.82 335.67L158.26 346.32C159.57 347.09 160.64 347.32 160.71 346.96C160.71 346.9 160.71 346.84 160.71 346.82V346.08C160.71 345.15 162 345.15 163.6 346.08C165.2 347.01 165.85 348.08 165.88 348.98V349.89C165.864 350.091 165.893 350.294 165.966 350.482C166.039 350.671 166.153 350.841 166.3 350.98L166.73 351.22C166.99 351.36 167.3 351.55 167.64 351.75L168.77 352.4C168.989 352.544 169.251 352.61 169.513 352.586C169.774 352.563 170.02 352.451 170.21 352.27C170.263 352.238 170.311 352.198 170.35 352.15C170.45 352.044 170.537 351.926 170.61 351.8C170.656 351.747 170.696 351.69 170.73 351.63C170.866 351.406 170.977 351.168 171.06 350.92C171.163 350.648 171.25 350.371 171.32 350.09C171.39 349.78 171.45 349.46 171.5 349.09C171.544 348.899 171.568 348.705 171.57 348.51C171.57 348.35 171.57 348.21 171.57 348.04C171.57 347.68 171.57 347.31 171.57 346.93V325.83H168.82Z" fill="#37474F"/>
<path opacity="0.1" d="M297.75 245.91L176.8 315.75L85.3703 263C84.0003 262.22 84.0003 260.94 85.3703 260.15L205.06 191L285.4 237.4L287.4 238.55C287.658 238.827 287.825 239.176 287.88 239.55V240.32C287.88 241.18 289.18 242.62 290.77 243.54C290.853 243.591 290.94 243.635 291.03 243.67L293.69 242.13L294.96 242.86L295.13 242.94L296.07 243.48C296.862 244.102 297.448 244.949 297.75 245.91Z" fill="black"/>
<path d="M92.1803 263.49L95.8203 261.55L92.5003 260.75C92.1863 261.126 91.9889 261.586 91.9321 262.072C91.8752 262.559 91.9615 263.052 92.1803 263.49Z" fill="#008E4A"/>
<path opacity="0.5" d="M92.1803 263.49L95.8203 261.55L92.5003 260.75C92.1863 261.126 91.9889 261.586 91.9321 262.072C91.8752 262.559 91.9615 263.052 92.1803 263.49Z" fill="black"/>
<path d="M188.581 312C187.434 312.581 186.166 312.885 184.881 312.885C183.595 312.885 182.327 312.581 181.181 312L98.1006 264L222.471 193.35L225.381 191.67L308.461 238.48C310.461 239.66 310.461 241.58 308.461 242.75L188.581 312Z" fill="#008E4A"/>
<path d="M157.391 222.59L128.391 239.27L109.641 228.44L87.8408 241V255.6C87.8408 257.51 89.9808 260.22 90.7508 259.78C92.1882 260.128 93.5857 260.624 94.9208 261.26C97.0911 262.499 99.1054 263.993 100.921 265.71L167.491 228.44L157.391 222.59Z" fill="#008E4A"/>
<path opacity="0.15" d="M157.391 222.59L128.391 239.27L109.641 228.44L87.8408 241V255.6C87.8408 257.51 89.9808 260.22 90.7508 259.78C92.1882 260.128 93.5857 260.624 94.9208 261.26C97.0911 262.499 99.1054 263.993 100.921 265.71L167.491 228.44L157.391 222.59Z" fill="black"/>
<path d="M99.8102 242.79V258.6C99.73 258.542 99.6465 258.488 99.5602 258.44C98.4855 257.777 97.2612 257.395 96.0002 257.33C95.1806 257.246 94.3566 257.44 93.6602 257.88V239.25L99.8102 242.79Z" fill="#37474F"/>
<path d="M103.891 264C103.829 263.022 103.482 262.083 102.891 261.3C102.59 260.883 102.256 260.492 101.891 260.13L101.541 259.8L101.081 259.41L100.701 259.13C100.437 258.933 100.163 258.75 99.8809 258.58V242.87L103.941 245.22V245.14L103.891 264Z" fill="#E0E0E0"/>
<path opacity="0.4" d="M87.8401 255.599C87.8401 257.509 89.9801 260.219 90.7501 259.779L93.6601 257.879V245.879L90.7401 240.879L89.1501 240.319L87.8301 241.079L87.8401 255.599Z" fill="black"/>
<path d="M184.881 291.91V309.91C184.024 309.934 183.176 309.734 182.421 309.33L173.301 304.07L103.881 264V245.14L184.881 291.91Z" fill="#EBEBEB"/>
<path opacity="0.15" d="M109.131 257.22L128.561 268.44C128.561 268.44 126.561 266.34 118.851 261.95C111.361 257.68 109.131 257.22 109.131 257.22Z" fill="black"/>
<path d="M306.381 224.17V237.79C306.334 238.646 306.086 239.478 305.657 240.22C305.227 240.962 304.629 241.593 303.911 242.06L196.451 304.06L187.351 309.32C186.592 309.725 185.741 309.925 184.881 309.9V294L306.381 224.17Z" fill="#F5F5F5"/>
<path d="M222.47 170L98.1004 241.8V243.47C98.1004 244.4 96.8004 244.74 95.2104 243.81C93.6204 242.88 92.3004 241.73 92.3004 240.14L92.1504 238.56L218.87 165.4L219.38 165.1C219.51 165.336 219.582 165.6 219.59 165.87V166.64C219.59 167.57 220.88 169.05 222.47 170Z" fill="#008E4A"/>
<path opacity="0.1" d="M222.47 170L98.1004 241.8V243.47C98.1004 244.4 96.8004 244.74 95.2104 243.81C93.6204 242.88 92.3004 241.73 92.3004 240.14L92.1504 238.56L218.87 165.4L219.38 165.1C219.51 165.336 219.582 165.6 219.59 165.87V166.64C219.59 167.57 220.88 169.05 222.47 170Z" fill="black"/>
<path d="M181.18 289.77L99.9403 242.87C98.9403 242.33 97.9403 241.87 97.5703 242.1L98.1003 241.8L222.47 170L223.92 169.16C224.73 168.7 226.48 168.96 227.84 169.74L308.46 216.29C310.46 217.47 310.46 219.39 308.46 220.56L188.58 289.77C187.434 290.352 186.166 290.655 184.88 290.655C183.595 290.655 182.327 290.352 181.18 289.77Z" fill="#102C46"/>
<path d="M225.941 190L270.861 216C272.761 217.1 272.761 218.89 270.861 220L264.811 223.49C263.74 224.032 262.556 224.314 261.356 224.314C260.155 224.314 258.972 224.032 257.901 223.49L213.001 197.51C211.091 196.41 211.091 194.62 213.001 193.51L219.001 190.02C220.074 189.468 221.262 189.178 222.468 189.175C223.675 189.171 224.865 189.454 225.941 190Z" fill="#EBEBEB"/>
<path d="M178.11 281.44C177.971 281.443 177.833 281.408 177.71 281.34L116.71 246.21C116.588 246.14 116.486 246.039 116.415 245.917C116.344 245.795 116.307 245.656 116.307 245.515C116.307 245.374 116.344 245.235 116.415 245.113C116.486 244.991 116.588 244.89 116.71 244.82C117.275 244.492 117.744 244.021 118.069 243.456C118.395 242.89 118.566 242.248 118.566 241.595C118.566 240.942 118.395 240.301 118.069 239.735C117.744 239.169 117.275 238.698 116.71 238.37C116.588 238.302 116.486 238.202 116.416 238.08C116.345 237.959 116.309 237.82 116.31 237.68C116.31 237.54 116.347 237.402 116.417 237.281C116.487 237.16 116.589 237.059 116.71 236.99L218.59 178.17C218.712 178.101 218.85 178.064 218.99 178.064C219.131 178.064 219.269 178.101 219.39 178.17C221.331 179.288 223.531 179.877 225.77 179.877C228.01 179.877 230.21 179.288 232.15 178.17C232.272 178.101 232.41 178.064 232.55 178.064C232.691 178.064 232.828 178.101 232.95 178.17L293.88 213.35C294 213.422 294.1 213.522 294.17 213.643C294.24 213.764 294.278 213.901 294.28 214.04C294.28 214.18 294.243 214.317 294.173 214.439C294.102 214.56 294.002 214.66 293.88 214.73C293.316 215.058 292.847 215.529 292.522 216.095C292.196 216.661 292.025 217.302 292.025 217.955C292.025 218.608 292.196 219.25 292.522 219.816C292.847 220.381 293.316 220.852 293.88 221.18C294.002 221.25 294.102 221.351 294.173 221.472C294.243 221.593 294.28 221.73 294.28 221.87C294.278 222.01 294.24 222.146 294.17 222.267C294.1 222.388 294 222.489 293.88 222.56L192.05 281.33C191.929 281.399 191.791 281.436 191.65 281.436C191.51 281.436 191.372 281.399 191.25 281.33C189.313 280.215 187.116 279.628 184.88 279.628C182.645 279.628 180.448 280.215 178.51 281.33C178.389 281.4 178.251 281.438 178.11 281.44ZM118.51 245.44L178.12 279.75C180.201 278.642 182.523 278.062 184.88 278.062C187.238 278.062 189.56 278.642 191.64 279.75L292 221.78C291.488 221.283 291.081 220.689 290.804 220.032C290.526 219.375 290.382 218.669 290.382 217.955C290.382 217.242 290.526 216.536 290.804 215.879C291.081 215.221 291.488 214.627 292 214.13L232.5 179.78C230.414 180.889 228.088 181.468 225.725 181.468C223.363 181.468 221.037 180.889 218.95 179.78L118.51 237.78C119.022 238.277 119.429 238.871 119.707 239.529C119.985 240.186 120.129 240.892 120.129 241.605C120.129 242.319 119.985 243.025 119.707 243.682C119.429 244.339 119.022 244.933 118.51 245.43V245.44Z" fill="#EBEBEB"/>
<path d="M219.38 165.1L218.87 165.4L92.1504 238.56C92.0847 238.423 91.989 238.304 91.8704 238.21L91.4503 237.97L90.5404 237.44C90.1904 237.25 89.8104 237.02 89.4104 236.79C89.1911 236.645 88.9292 236.579 88.6676 236.603C88.406 236.627 88.1602 236.738 87.9704 236.92C87.9145 236.952 87.8667 236.997 87.8304 237.05C87.6802 237.205 87.5523 237.38 87.4503 237.57C87.3125 237.796 87.2018 238.038 87.1204 238.29C87.0158 238.557 86.929 238.831 86.8604 239.11C86.7904 239.42 86.7304 239.74 86.6804 240.11C86.6368 240.3 86.6133 240.495 86.6104 240.69C86.6104 240.85 86.6104 240.99 86.6104 241.16C86.6104 241.52 86.6104 241.89 86.6104 242.27V238.71C86.6104 236.71 88.2803 234.2 90.3103 233.02L210.2 163.79C212.2 162.61 215.2 162.41 216.79 163.32L218.3 164.21H218.36C218.46 164.28 218.72 164.42 219 164.58C219.172 164.716 219.303 164.895 219.38 165.1Z" fill="#008E4A"/>
<path d="M181.181 312L176.181 309.09L101.001 265.7C100.945 264.723 100.596 263.786 100.001 263.01C99.1117 261.833 97.9922 260.85 96.7105 260.12C95.62 259.442 94.3733 259.056 93.0905 259C92.2466 258.99 91.4234 259.26 90.7505 259.77C89.7817 257.843 89.3075 255.706 89.3705 253.55H86.5205C86.5205 257.48 87.8205 261.42 89.4105 262.33L90.8505 263.17C91.6605 263.64 92.3005 263.67 92.3005 263.23V262.46C92.3005 261.61 93.6005 261.65 95.2105 262.58C96.8205 263.51 98.1005 265 98.1005 265.8V266.57C98.1005 267.02 99.2105 268 100.561 268.78L173.301 310.78L181.181 315.33C182.32 315.92 183.587 316.219 184.871 316.2V312.91C183.583 312.93 182.311 312.616 181.181 312Z" fill="#008E4A"/>
<path opacity="0.3" d="M181.181 312L176.181 309.09L101.001 265.7C100.945 264.723 100.596 263.786 100.001 263.01C99.1117 261.833 97.9922 260.85 96.7105 260.12C95.62 259.442 94.3733 259.056 93.0905 259C92.2466 258.99 91.4234 259.26 90.7505 259.77C89.7817 257.843 89.3075 255.706 89.3705 253.55H86.5205C86.5205 257.48 87.8205 261.42 89.4105 262.33L90.8505 263.17C91.6605 263.64 92.3005 263.67 92.3005 263.23V262.46C92.3005 261.61 93.6005 261.65 95.2105 262.58C96.8205 263.51 98.1005 265 98.1005 265.8V266.57C98.1005 267.02 99.2105 268 100.561 268.78L173.301 310.78L181.181 315.33C182.32 315.92 183.587 316.219 184.871 316.2V312.91C183.583 312.93 182.311 312.616 181.181 312Z" fill="black"/>
<path d="M181.211 289.79L176.211 286.89L118.421 253.55L99.9409 242.87C98.6309 242.1 97.5609 241.87 97.4909 242.23V243.07C97.4909 244 96.2009 244 94.6009 243.07C93.0009 242.14 92.3509 241.07 92.3209 240.17V239.26C92.3379 239.058 92.308 238.854 92.2334 238.665C92.1589 238.476 92.0416 238.306 91.8909 238.17L91.4709 237.93C91.2109 237.79 90.9009 237.6 90.5609 237.4C90.2209 237.2 89.8309 236.98 89.4309 236.75C89.2116 236.606 88.9497 236.54 88.6881 236.563C88.4265 236.587 88.1807 236.699 87.9909 236.88C87.935 236.912 87.8872 236.957 87.8509 237.01C87.748 237.11 87.6604 237.225 87.5909 237.35C87.543 237.404 87.5026 237.465 87.4709 237.53C87.333 237.756 87.2223 237.998 87.1409 238.25C87.0363 238.517 86.9495 238.791 86.8809 239.07C86.8109 239.38 86.7509 239.7 86.7009 240.07C86.6573 240.26 86.6338 240.455 86.6309 240.65C86.6309 240.81 86.6309 240.95 86.6309 241.12C86.6309 241.48 86.6309 241.85 86.6309 242.23V253.55H89.4809V242.24C89.4809 241.95 89.4809 241.65 89.4809 241.36L89.5509 240.65C89.546 240.627 89.546 240.603 89.5509 240.58C89.8109 242.84 91.9709 244.87 93.8509 245.93C94.8788 246.569 96.052 246.937 97.2609 247C98.197 247.008 99.1039 246.674 99.8109 246.06L100.061 246.2L100.561 246.5L173.301 288.5L181.181 293.04H181.241C182.365 293.61 183.611 293.899 184.871 293.88V290.59C183.603 290.631 182.346 290.356 181.211 289.79Z" fill="#008E4A"/>
<path opacity="0.3" d="M181.211 289.79L176.211 286.89L118.421 253.55L99.9409 242.87C98.6309 242.1 97.5609 241.87 97.4909 242.23V243.07C97.4909 244 96.2009 244 94.6009 243.07C93.0009 242.14 92.3509 241.07 92.3209 240.17V239.26C92.3379 239.058 92.308 238.854 92.2334 238.665C92.1589 238.476 92.0416 238.306 91.8909 238.17L91.4709 237.93C91.2109 237.79 90.9009 237.6 90.5609 237.4C90.2209 237.2 89.8309 236.98 89.4309 236.75C89.2116 236.606 88.9497 236.54 88.6881 236.563C88.4265 236.587 88.1807 236.699 87.9909 236.88C87.935 236.912 87.8872 236.957 87.8509 237.01C87.748 237.11 87.6604 237.225 87.5909 237.35C87.543 237.404 87.5026 237.465 87.4709 237.53C87.333 237.756 87.2223 237.998 87.1409 238.25C87.0363 238.517 86.9495 238.791 86.8809 239.07C86.8109 239.38 86.7509 239.7 86.7009 240.07C86.6573 240.26 86.6338 240.455 86.6309 240.65C86.6309 240.81 86.6309 240.95 86.6309 241.12C86.6309 241.48 86.6309 241.85 86.6309 242.23V253.55H89.4809V242.24C89.4809 241.95 89.4809 241.65 89.4809 241.36L89.5509 240.65C89.546 240.627 89.546 240.603 89.5509 240.58C89.8109 242.84 91.9709 244.87 93.8509 245.93C94.8788 246.569 96.052 246.937 97.2609 247C98.197 247.008 99.1039 246.674 99.8109 246.06L100.061 246.2L100.561 246.5L173.301 288.5L181.181 293.04H181.241C182.365 293.61 183.611 293.899 184.871 293.88V290.59C183.603 290.631 182.346 290.356 181.211 289.79Z" fill="black"/>
<path d="M310.001 218.38V221.72C309.966 222.171 309.811 222.604 309.552 222.975C309.294 223.346 308.941 223.641 308.531 223.83H308.481L196.481 288.49L188.621 293.04C187.482 293.632 186.214 293.931 184.931 293.91V290.62C186.222 290.651 187.5 290.347 188.641 289.74L193.641 286.85L308.501 220.51C308.92 220.324 309.282 220.028 309.546 219.653C309.81 219.278 309.967 218.838 310.001 218.38Z" fill="#008E4A"/>
<path opacity="0.2" d="M310.001 218.38V221.72C309.966 222.171 309.811 222.604 309.552 222.975C309.294 223.346 308.941 223.641 308.531 223.83H308.481L196.481 288.49L188.621 293.04C187.482 293.632 186.214 293.931 184.931 293.91V290.62C186.222 290.651 187.5 290.347 188.641 289.74L193.641 286.85L308.501 220.51C308.92 220.324 309.282 220.028 309.546 219.653C309.81 219.278 309.967 218.838 310.001 218.38Z" fill="black"/>
<path d="M310.001 240.64V244C309.966 244.45 309.811 244.884 309.552 245.254C309.294 245.625 308.941 245.921 308.531 246.11H308.481L196.481 310.77L188.621 315.32C187.482 315.911 186.214 316.21 184.931 316.19V312.9C186.222 312.93 187.5 312.627 188.641 312.02L193.641 309.13L308.501 242.8C308.924 242.611 309.288 242.31 309.552 241.929C309.816 241.548 309.972 241.102 310.001 240.64Z" fill="#008E4A"/>
<path opacity="0.2" d="M310.001 240.64V244C309.966 244.45 309.811 244.884 309.552 245.254C309.294 245.625 308.941 245.921 308.531 246.11H308.481L196.481 310.77L188.621 315.32C187.482 315.911 186.214 316.21 184.931 316.19V312.9C186.222 312.93 187.5 312.627 188.641 312.02L193.641 309.13L308.501 242.8C308.924 242.611 309.288 242.31 309.552 241.929C309.816 241.548 309.972 241.102 310.001 240.64Z" fill="black"/>
<path d="M112.37 259.09V303.97L118.85 296.49L125.33 311.45V266.57L112.37 259.09Z" fill="#008E4A"/>
<path opacity="0.5" d="M112.37 259.09V303.97L118.85 296.49L125.33 311.45V266.57L112.37 259.09Z" fill="black"/>
<path d="M138.281 352.59V364.77C138.281 366.753 137.759 368.7 136.767 370.417C135.775 372.134 134.348 373.559 132.631 374.55L115.631 384.38L131.821 382.51L128.581 391.86L145.581 382.03C147.297 381.038 148.722 379.612 149.714 377.896C150.706 376.179 151.229 374.232 151.231 372.25V360.07L138.281 352.59Z" fill="#008E4A"/>
<path opacity="0.5" d="M138.281 352.59V364.77C138.281 366.753 137.759 368.7 136.767 370.417C135.775 372.134 134.348 373.559 132.631 374.55L115.631 384.38L131.821 382.51L128.581 391.86L145.581 382.03C147.297 381.038 148.722 379.612 149.714 377.896C150.706 376.179 151.229 374.232 151.231 372.25V360.07L138.281 352.59Z" fill="black"/>
<path d="M382.621 145.659V134.719L373.381 133.909C373.249 133.899 373.117 133.927 373.001 133.989L363.781 139.259C363.701 139.312 363.634 139.381 363.582 139.461C363.531 139.541 363.497 139.632 363.483 139.726C363.469 139.82 363.475 139.916 363.5 140.008C363.526 140.1 363.57 140.186 363.631 140.259L373.431 150.879L382.621 145.659Z" fill="#102C46"/>
<path d="M373.43 150.919L363.63 140.299C363.535 140.2 363.472 140.073 363.451 139.937C363.43 139.801 363.452 139.661 363.513 139.538C363.574 139.414 363.672 139.312 363.793 139.246C363.915 139.18 364.053 139.154 364.19 139.169L373.43 139.969V150.919Z" fill="#102C46"/>
<path d="M382.62 134.719L373.43 139.999L364.19 139.189C364.081 139.179 363.971 139.196 363.87 139.239C364.61 138.799 372.66 134.189 373 134.009C373.12 133.945 373.255 133.918 373.39 133.929L382.62 134.719Z" fill="#102C46"/>
<path opacity="0.5" d="M382.62 134.719L373.43 139.999L364.19 139.189C364.081 139.179 363.971 139.196 363.87 139.239C364.61 138.799 372.66 134.189 373 134.009C373.12 133.945 373.255 133.918 373.39 133.929L382.62 134.719Z" fill="#EBEBEB"/>
<path d="M373.44 127.63C373.503 126.474 373.837 125.349 374.415 124.346C374.994 123.344 375.801 122.492 376.77 121.86L379.48 120.3C380.511 119.772 381.653 119.497 382.81 119.497C383.968 119.497 385.11 119.772 386.14 120.3L415 137C415.971 137.631 416.778 138.483 417.357 139.486C417.935 140.488 418.269 141.614 418.33 142.77V176.15C418.264 177.302 417.927 178.422 417.349 179.421C416.771 180.419 415.966 181.268 415 181.9L412.29 183.46C411.258 183.982 410.117 184.255 408.96 184.255C407.803 184.255 406.663 183.982 405.63 183.46L397.1 178.54L386.01 172.13L376.73 166.78C375.761 166.147 374.954 165.295 374.375 164.293C373.797 163.29 373.463 162.165 373.4 161.01L373.44 127.63Z" fill="#102C46"/>
<path d="M402.35 157.089C402.332 154.894 401.873 152.724 401 150.709C400.204 148.6 398.784 146.783 396.93 145.499C394.15 143.859 391.82 147.189 391.46 151.119C391.13 146.779 388.85 140.739 386.06 139.119C385.454 138.651 384.691 138.433 383.929 138.509C383.167 138.585 382.462 138.95 381.96 139.529C380.943 140.899 380.443 142.586 380.55 144.289C380.55 150.929 384.55 156.959 387.86 163.289L391.38 169.949L394.95 167.459C398.3 165.049 402.32 163.739 402.35 157.089Z" fill="#FAFAFA"/>
<path opacity="0.2" d="M418.37 176.13C418.302 177.289 417.961 178.415 417.376 179.418C416.79 180.421 415.976 181.271 415 181.9L412.29 183.46C411.351 183.931 410.323 184.199 409.274 184.245C408.225 184.292 407.177 184.116 406.2 183.73C407.76 184.32 408.96 183.44 408.96 181.54V148.16C408.916 146.998 408.572 145.868 407.96 144.88L417.33 139.47C417.942 140.458 418.286 141.588 418.33 142.75L418.37 176.13Z" fill="black"/>
<path opacity="0.5" d="M373.551 126.679C373.941 125.269 375.231 124.819 376.771 125.679L405.671 142.369C406.66 142.977 407.471 143.836 408.021 144.859L417.381 139.449C416.81 138.442 415.991 137.599 415.001 136.999L386.151 120.299C385.119 119.776 383.978 119.504 382.821 119.504C381.664 119.504 380.523 119.776 379.491 120.299L376.771 121.869C375.937 122.412 375.222 123.118 374.668 123.944C374.115 124.771 373.735 125.701 373.551 126.679Z" fill="#EBEBEB"/>
<path d="M301.44 199.301C315.51 198.831 322.49 206.061 331.01 218.361C339.53 230.661 363.01 264.761 363.01 264.761L344.74 275.311L304.74 220.441L301.44 199.301Z" fill="#FFA8A7"/>
<path d="M288.73 109.57C258.18 111.09 245.82 135.36 250.06 157.57C253.74 176.83 268.22 187.25 287.95 187.25H290.42C311.89 187.25 326.18 165.25 328.82 153.39C335 125.85 315.81 108.23 288.73 109.57Z" fill="#37474F"/>
<path d="M364.071 396.47C364.821 414.94 334.561 418.56 307.981 405.88C287.931 396.32 278.981 389.42 260.731 375.8C238.121 358.89 231.341 333.28 247.471 302.86L324.381 298.86C337.771 314.38 386.001 335 402.001 371.68C409.771 391.07 383.081 401.28 364.001 396.47H364.071Z" fill="#102C46"/>
<path d="M364.07 396.471C362.07 379.061 348.82 370.471 337.45 362.041C326.08 353.611 302.19 339.001 302.19 339.001C302.19 339.001 314.07 341.771 324.97 330.561C324.637 332.968 323.779 335.272 322.455 337.309C321.131 339.347 319.374 341.068 317.31 342.351C317.31 342.351 350.38 361.261 360.31 377.291C363.926 382.986 365.268 389.832 364.07 396.471Z" fill="#37474F"/>
<path d="M282.81 199.301H274C265.47 199.901 257 200.561 257 200.561C243.34 205.491 243.4 216.261 242.72 221.911C241.72 229.911 243.98 234.471 246.61 242.071L259.21 278.511C259.21 278.511 254.33 289.391 247.48 302.861C279.1 320.501 317.55 314.611 327.05 301.731C327.45 299.001 326.05 270.101 324.51 256.151C328.917 252.644 331.788 247.561 332.518 241.976C333.247 236.392 331.778 230.742 328.42 226.221C316.53 209.971 305.71 200.171 301.42 199.301H282.81Z" fill="#008E4A"/>
<path opacity="0.3" d="M282.81 199.301H274C265.47 199.901 257 200.561 257 200.561C243.34 205.491 243.4 216.261 242.72 221.911C241.72 229.911 243.98 234.471 246.61 242.071L259.21 278.511C259.21 278.511 254.33 289.391 247.48 302.861C279.1 320.501 317.55 314.611 327.05 301.731C327.45 299.001 326.05 270.101 324.51 256.151C328.917 252.644 331.788 247.561 332.518 241.976C333.247 236.392 331.778 230.742 328.42 226.221C316.53 209.971 305.71 200.171 301.42 199.301H282.81Z" fill="black"/>
<path opacity="0.15" d="M256.641 284.06C255.561 286.38 254.161 289.33 252.531 292.67C252.251 293.26 251.961 293.86 251.661 294.46C251.291 295.22 250.911 296 250.511 296.79C249.511 298.73 248.511 300.79 247.511 302.86C248.681 303.51 249.861 304.11 251.041 304.7C272.201 315.22 295.761 315.75 311.451 311.05C300.785 312.468 289.953 311.997 279.451 309.66C276.975 309.089 274.638 308.03 272.576 306.545C270.515 305.059 268.77 303.178 267.445 301.01C266.12 298.842 265.24 296.431 264.859 293.919C264.477 291.407 264.6 288.844 265.221 286.38C265.303 286.039 265.41 285.705 265.541 285.38C267.541 280.49 271.951 281.13 271.951 281.13C269.914 279.793 268.163 278.065 266.798 276.046C265.434 274.028 264.483 271.758 264.001 269.37L262.341 264.3C258.529 252.782 258.333 240.373 261.781 228.74L261.871 228.41L248.431 220.75L246.081 222.38C245.347 224.746 244.916 227.196 244.801 229.67C244.801 230.3 244.801 230.94 244.801 231.58C244.801 231.88 244.801 232.18 244.801 232.47C244.801 233.01 244.861 233.54 244.911 234.07C244.961 234.6 244.991 234.92 245.051 235.34C245.111 235.76 245.171 236.24 245.251 236.69C245.331 237.14 245.461 237.78 245.581 238.32C245.661 238.66 245.721 239.01 245.811 239.32C246.041 240.21 246.301 241.1 246.601 241.97L259.201 278.41C259.201 278.41 258.271 280.59 256.641 284.06Z" fill="black"/>
<path d="M314.5 128.461C316.5 129.461 321.91 139.811 321.39 162.341C320.95 181.441 314.76 186.151 311.65 187.511C308.54 188.871 302.55 188.041 296.72 187.071V198.531C296.72 198.531 304.78 207.891 304.27 213.141C303.76 218.391 292.64 219.641 285.11 214.511C280.224 210.994 276.03 206.603 272.74 201.561V173.861C272.74 173.861 269.56 177.351 263.12 173.081C256.68 168.811 255.69 159.991 259.43 156.191C263.17 152.391 271.24 153.601 272.74 158.841C272.74 158.841 282.18 160.511 294.84 152.361C308.51 143.561 312.72 136.561 314.5 128.461Z" fill="#FFA8A7"/>
<path d="M317.62 149.81L312.28 147.26C312.429 146.905 312.649 146.584 312.926 146.317C313.203 146.049 313.532 145.841 313.892 145.704C314.252 145.567 314.636 145.506 315.021 145.522C315.406 145.539 315.783 145.633 316.13 145.8C316.846 146.149 317.4 146.761 317.678 147.507C317.955 148.254 317.935 149.079 317.62 149.81Z" fill="#263238"/>
<path d="M293.8 146.76L288.8 149.91C288.583 149.596 288.433 149.242 288.357 148.868C288.281 148.495 288.281 148.109 288.357 147.736C288.434 147.362 288.585 147.008 288.802 146.694C289.019 146.38 289.297 146.114 289.62 145.91C290.292 145.488 291.102 145.34 291.88 145.499C292.658 145.657 293.346 146.109 293.8 146.76Z" fill="#263238"/>
<path d="M272.521 153.58L272.851 165.26C273.618 165.278 274.381 165.14 275.093 164.854C275.806 164.568 276.453 164.141 276.995 163.597C277.537 163.054 277.964 162.407 278.248 161.694C278.533 160.981 278.67 160.217 278.651 159.45C278.581 157.871 277.905 156.379 276.763 155.285C275.621 154.192 274.101 153.581 272.521 153.58Z" fill="#37474F"/>
<path d="M297.931 156.81C297.934 157.28 297.799 157.741 297.543 158.135C297.286 158.53 296.92 158.84 296.489 159.028C296.057 159.215 295.581 159.272 295.117 159.191C294.654 159.11 294.225 158.895 293.883 158.572C293.541 158.249 293.302 157.833 293.194 157.375C293.087 156.917 293.116 156.438 293.279 155.996C293.442 155.555 293.731 155.172 294.11 154.893C294.489 154.615 294.941 154.454 295.411 154.43C295.733 154.419 296.054 154.473 296.355 154.587C296.657 154.701 296.933 154.874 297.167 155.095C297.401 155.316 297.589 155.582 297.72 155.876C297.852 156.17 297.923 156.488 297.931 156.81Z" fill="#263238"/>
<path d="M300 173.711L306.33 175.711C306.217 176.135 306.018 176.533 305.748 176.878C305.477 177.224 305.139 177.512 304.754 177.724C304.369 177.936 303.945 178.068 303.508 178.112C303.071 178.156 302.63 178.112 302.21 177.981C301.362 177.692 300.658 177.087 300.246 176.291C299.834 175.495 299.746 174.57 300 173.711Z" fill="#F28F8F"/>
<path d="M316.5 155.81C316.503 156.28 316.369 156.741 316.112 157.135C315.856 157.53 315.489 157.84 315.058 158.028C314.627 158.215 314.15 158.272 313.687 158.191C313.223 158.11 312.794 157.895 312.452 157.572C312.11 157.249 311.871 156.833 311.764 156.375C311.656 155.917 311.686 155.438 311.848 154.996C312.011 154.555 312.3 154.172 312.679 153.893C313.058 153.615 313.51 153.454 313.98 153.43C314.302 153.419 314.623 153.473 314.925 153.587C315.226 153.701 315.502 153.874 315.736 154.095C315.97 154.316 316.159 154.582 316.29 154.876C316.421 155.17 316.492 155.488 316.5 155.81Z" fill="#263238"/>
<path d="M304.771 154.431L305.161 168.891L312.761 166.531L304.771 154.431Z" fill="#F28F8F"/>
<path d="M296.72 187.071C290.58 186.271 277.95 182.641 275.98 177.641C275.98 177.641 276.64 180.781 280.41 184.021C284.18 187.261 296.72 190.901 296.72 190.901V187.071Z" fill="#F28F8F"/>
<path d="M386.29 239.751C386.29 239.751 386.05 236.231 390.69 232.801C395.33 229.371 401.39 226.621 403.37 218.101L409.76 221.791L399 239.891L386.29 239.751Z" fill="#008E4A"/>
<path opacity="0.75" d="M386.29 239.751C386.29 239.751 386.05 236.231 390.69 232.801C395.33 229.371 401.39 226.621 403.37 218.101L409.76 221.791L399 239.891L386.29 239.751Z" fill="#EBEBEB"/>
<path d="M386.29 239.75C386.29 239.75 379.29 236.25 364 239.41C348.71 242.57 336.19 246.66 306.79 246.01L314.42 250.42L390.75 246L386.29 239.75Z" fill="#008E4A"/>
<path opacity="0.75" d="M386.29 239.75C386.29 239.75 379.29 236.25 364 239.41C348.71 242.57 336.19 246.66 306.79 246.01L314.42 250.42L390.75 246L386.29 239.75Z" fill="#EBEBEB"/>
<path d="M306.79 246.011L279.5 333.841L287.13 338.251L314.42 250.421L306.79 246.011Z" fill="#008E4A"/>
<path opacity="0.8" d="M306.79 246.011L279.5 333.841L287.13 338.251L314.42 250.421L306.79 246.011Z" fill="#EBEBEB"/>
<path opacity="0.1" d="M306.79 246.011L279.5 333.841L287.13 338.251L314.42 250.421L306.79 246.011Z" fill="black"/>
<g opacity="0.1">
<path d="M403.36 222.82C402.646 224.656 401.579 226.334 400.22 227.76C398.849 229.188 397.386 230.524 395.84 231.76C394.285 232.923 392.845 234.232 391.54 235.67C390.927 236.376 390.41 237.16 390 238C389.614 238.808 389.425 239.696 389.45 240.59L388.52 240.73C388.503 239.658 388.758 238.598 389.26 237.65C389.72 236.744 390.299 235.904 390.98 235.15C392.368 233.737 393.888 232.461 395.52 231.34C397.096 230.184 398.599 228.932 400.02 227.59C401.432 226.232 402.566 224.612 403.36 222.82Z" fill="black"/>
<path d="M402.14 227.771C401.488 228.867 400.699 229.875 399.79 230.771C398.91 231.701 398.01 232.591 397.15 233.531C396.289 234.455 395.519 235.459 394.85 236.531C394.193 237.553 393.783 238.713 393.65 239.921L392.71 239.801C392.945 238.48 393.475 237.229 394.26 236.141C395.019 235.094 395.876 234.123 396.82 233.241C397.74 232.351 398.7 231.511 399.62 230.641C400.58 229.797 401.427 228.832 402.14 227.771Z" fill="black"/>
<path d="M336.19 246.66C340.368 246.281 344.521 245.67 348.63 244.83C352.75 244 356.82 242.98 360.91 242.03C365.011 241.028 369.21 240.482 373.43 240.4C375.55 240.334 377.672 240.417 379.78 240.65C380.845 240.767 381.898 240.967 382.93 241.25C384.025 241.521 385.049 242.026 385.93 242.73L385.28 243.41C384.518 242.795 383.636 242.345 382.69 242.09C381.707 241.808 380.704 241.597 379.69 241.46C377.628 241.195 375.55 241.074 373.47 241.1C369.275 241.1 365.093 241.566 361 242.49C356.9 243.36 352.8 244.31 348.67 245.06C344.543 245.822 340.377 246.356 336.19 246.66Z" fill="black"/>
<path d="M356.37 246.28C358.74 245.96 361.07 245.47 363.42 245.02C365.77 244.57 368.12 244.14 370.49 243.83C372.87 243.48 375.275 243.32 377.68 243.35C380.128 243.347 382.555 243.794 384.84 244.67L384.46 245.53C382.3 244.624 379.992 244.122 377.65 244.05C375.281 243.945 372.907 244.026 370.55 244.29C368.18 244.53 365.82 244.88 363.46 245.29C361.1 245.7 358.75 246 356.37 246.28Z" fill="black"/>
</g>
<path d="M409.78 217.4L397.2 238.85L367.92 333.03L371.74 335.23L384.3 308.93L413.58 219.59L409.78 217.4Z" fill="#008E4A"/>
<path opacity="0.2" d="M401.01 241.061L413.58 219.591L384.3 308.931L371.74 335.231L401.01 241.061Z" fill="black"/>
<path d="M384.65 246.101L309.37 250.931L280.09 345.101L283.91 347.301L359.19 342.471L388.46 248.301L384.65 246.101Z" fill="#008E4A"/>
<path opacity="0.2" d="M313.18 253.131L283.91 347.301L359.19 342.471L388.46 248.301L313.18 253.131Z" fill="black"/>
<path d="M297.16 342.92C297.089 342.919 297.019 342.902 296.955 342.871C296.891 342.84 296.835 342.795 296.79 342.74C296.745 342.679 296.714 342.609 296.7 342.534C296.687 342.46 296.69 342.383 296.71 342.31C296.943 341.559 296.991 340.763 296.848 339.99C296.705 339.217 296.377 338.49 295.891 337.872C295.404 337.254 294.775 336.763 294.058 336.442C293.34 336.122 292.555 335.98 291.77 336.03C291.694 336.033 291.618 336.019 291.549 335.987C291.479 335.956 291.418 335.909 291.37 335.85C291.321 335.791 291.288 335.721 291.274 335.645C291.26 335.57 291.266 335.493 291.29 335.42L313.56 263.79C313.588 263.7 313.641 263.621 313.714 263.562C313.788 263.504 313.876 263.468 313.97 263.46C316.024 263.323 317.989 262.57 319.607 261.297C321.226 260.025 322.422 258.294 323.04 256.33C323.068 256.239 323.124 256.159 323.199 256.1C323.274 256.041 323.365 256.006 323.46 256L375.18 252.68C375.256 252.677 375.332 252.692 375.401 252.723C375.471 252.754 375.532 252.801 375.58 252.86C375.627 252.92 375.659 252.99 375.673 253.065C375.687 253.14 375.682 253.217 375.66 253.29C375.421 254.041 375.371 254.838 375.514 255.613C375.657 256.387 375.989 257.114 376.48 257.73C376.959 258.356 377.587 258.852 378.306 259.173C379.026 259.494 379.814 259.631 380.6 259.57C380.676 259.564 380.753 259.578 380.823 259.609C380.893 259.641 380.954 259.689 381 259.75C381.049 259.809 381.082 259.879 381.096 259.955C381.11 260.03 381.104 260.108 381.08 260.18L358.82 331.81C358.791 331.901 358.735 331.98 358.66 332.039C358.585 332.098 358.495 332.133 358.4 332.14C356.347 332.28 354.383 333.034 352.765 334.306C351.147 335.578 349.95 337.308 349.33 339.27C349.303 339.362 349.248 339.443 349.173 339.502C349.097 339.561 349.006 339.596 348.91 339.6L297.19 342.92H297.16ZM292.38 335.08C293.205 335.124 294.011 335.344 294.743 335.725C295.476 336.106 296.12 336.639 296.63 337.288C297.14 337.938 297.506 338.689 297.702 339.491C297.899 340.293 297.922 341.128 297.77 341.94L348.54 338.68C349.241 336.661 350.507 334.885 352.187 333.565C353.868 332.244 355.892 331.434 358.02 331.23L380.02 260.52C379.194 260.477 378.387 260.258 377.653 259.878C376.919 259.498 376.275 258.965 375.763 258.315C375.252 257.666 374.885 256.914 374.688 256.111C374.491 255.309 374.468 254.473 374.62 253.66L323.86 256.92C323.157 258.938 321.89 260.712 320.21 262.033C318.53 263.353 316.507 264.164 314.38 264.37L292.38 335.08Z" fill="#FAFAFA"/>
<path opacity="0.3" d="M309.37 250.931L313.18 253.131L283.91 347.301L280.09 345.101L309.37 250.931Z" fill="black"/>
<path d="M388.461 248.301L401.001 241.061L371.731 335.231C369.781 340.311 365.471 342.581 359.181 342.471L388.461 248.301Z" fill="#008E4A"/>
<path opacity="0.3" d="M388.461 248.301L401.001 241.061L371.731 335.231C369.541 340.601 365.111 342.651 359.181 342.471L388.461 248.301Z" fill="black"/>
<path d="M396.77 238.611C394.44 237.241 389.77 237.751 386.29 239.751C382.81 241.751 381.91 244.471 384.24 245.841L388.46 248.301L401 241.061L397.19 238.851L396.77 238.611Z" fill="#008E4A"/>
<path d="M381.771 269.801C386.291 269.891 391.201 269.321 393.391 265.581L396.301 256.261C393.551 260.021 389.951 261.981 384.301 261.821L381.771 269.801Z" fill="#E0E0E0"/>
<path d="M397.2 238.851C396.46 242.471 391.84 244.731 384.65 246.101L388.46 248.301C394.64 247.591 398.72 245.091 401.01 241.061L397.2 238.851Z" fill="#008E4A"/>
<path d="M257 200.561C249.18 201.031 240.87 203.631 237.31 217.781C233.75 231.931 224.06 279.401 223.31 285.781C222.56 292.161 222.41 297.311 237.74 302.221C255.04 307.751 283 309.921 290.9 310.341C305.47 311.131 315.18 306.841 319.83 298.471C324.48 290.101 325.83 278.961 312.75 284.361C298.87 290.101 293.05 290.241 293.05 290.241L295.71 281.681C291.36 283.571 287.71 289.521 283.36 290.241C279.5 290.891 250.11 280.721 250.11 280.721L260.11 238.051C260.11 238.051 269.24 211.161 257 200.561Z" fill="#FFA8A7"/>
<path d="M258.45 184.77C256.814 186.575 255.078 188.288 253.25 189.9C249.74 193.32 247.25 196.31 245.62 200.9C243.99 205.49 244.2 211.01 247.16 214.9C250.12 218.79 255.16 220.6 257.25 224.9C258.25 226.96 258.45 229.32 258.78 231.6C259.48 236.53 261 241.47 264.03 245.43C268.94 251.87 279.44 255.12 286.15 249.25C288.255 247.213 289.757 244.635 290.49 241.8C292.401 236.073 292.271 229.861 290.12 224.22C288.12 219.28 284.29 215.32 280.76 211.31C277.61 207.73 273.45 203.08 272.76 198.14C272.76 198.14 272.63 188.95 272.7 184.59C272.7 182.46 272.7 180.31 270.64 179.19C269.055 178.246 267.291 177.64 265.46 177.41C262.64 177.27 262.16 177.62 262.16 177.62C261.384 180.215 260.125 182.641 258.45 184.77Z" fill="#37474F"/>
<path d="M398.941 264C398.031 261 394.661 266.63 393.181 275.22C391.771 283.44 389.831 292.03 389.831 292.03L387.561 299.03C387.561 299.03 392.991 295.67 397.421 286.46C401.851 277.25 401.521 272.47 398.941 264Z" fill="#FFA8A7"/>
</svg>
