<svg width="60" height="60" viewBox="0 0 60 60" fill="none" xmlns="http://www.w3.org/2000/svg">
<path fill-rule="evenodd" clip-rule="evenodd" d="M3.52942 30.1447C3.52942 14.6541 16.1718 2.05408 31.7118 2.05408C47.2447 2.05408 59.8871 14.6541 59.8871 30.1447C59.8871 45.6353 47.2447 58.2353 31.7118 58.2353C16.1718 58.2353 3.52942 45.6353 3.52942 30.1447ZM53.1424 30.1447C53.1424 18.3811 43.56 8.80937 31.7859 8.80937C20.0082 8.80937 10.4259 18.3811 10.4259 30.1447C10.4259 41.9082 20.0118 51.48 31.7859 51.48C43.5635 51.48 53.1424 41.9082 53.1424 30.1447Z" fill="#434343"/>
<path fill-rule="evenodd" clip-rule="evenodd" d="M31.6765 19.4823L17.8976 30.0776L31.68 40.4929V33.4235H42.7624C43.98 33.4235 45.5541 32.2799 45.5541 30.0529C45.5541 27.8294 43.8494 26.6117 42.6388 26.6117H31.68L31.6765 19.4823Z" fill="#434343"/>
</svg>
