<svg width="112" height="104" viewBox="0 0 112 104" fill="none" xmlns="http://www.w3.org/2000/svg">
<path d="M63.7069 15.1759L71.8732 30.3947C72.9868 32.5132 75.9564 34.5453 78.462 34.9344L93.2634 37.2259C102.729 38.6959 104.956 45.0947 98.1354 51.4071L86.6283 62.1294C84.6795 63.9453 83.6123 67.4474 84.2155 69.955L87.5099 83.2282C90.1083 93.7344 84.1227 97.7985 74.1468 92.3077L60.2733 84.655C57.7678 83.2715 53.6382 83.2715 51.0862 84.655L37.2127 92.3077C27.2832 97.7985 21.2513 93.6912 23.8497 83.2282L27.144 69.955C27.7472 67.4474 26.68 63.9453 24.7313 62.1294L13.2242 51.4071C6.44983 45.0947 8.63061 38.6959 18.0961 37.2259L32.8976 34.9344C35.3568 34.5453 38.3263 32.5132 39.4399 30.3947L47.6063 15.1759C52.0606 6.91794 59.2989 6.91794 63.7069 15.1759Z" fill="#E7D05C"/>
</svg>
