<svg width="36" height="36" viewBox="0 0 36 36" fill="none" xmlns="http://www.w3.org/2000/svg">
<path d="M27 4.5H9C5.685 4.5 3 7.17 3 10.455V25.545C3 28.83 5.685 31.5 9 31.5H27C30.315 31.5 33 28.83 33 25.545V10.455C33 7.17 30.315 4.5 27 4.5ZM12.75 10.755C14.655 10.755 16.215 12.315 16.215 14.22C16.215 16.125 14.655 17.685 12.75 17.685C10.845 17.685 9.285 16.125 9.285 14.22C9.285 12.315 10.845 10.755 12.75 10.755ZM18.555 24.99C18.42 25.14 18.21 25.23 18 25.23H7.5C7.29 25.23 7.08 25.14 6.945 24.99C6.81 24.84 6.735 24.63 6.75 24.42C7.005 21.9 9.015 19.905 11.535 19.665C12.33 19.59 13.155 19.59 13.95 19.665C16.47 19.905 18.495 21.9 18.735 24.42C18.765 24.63 18.69 24.84 18.555 24.99ZM28.5 25.125H25.5C24.885 25.125 24.375 24.615 24.375 24C24.375 23.385 24.885 22.875 25.5 22.875H28.5C29.115 22.875 29.625 23.385 29.625 24C29.625 24.615 29.115 25.125 28.5 25.125ZM28.5 19.125H22.5C21.885 19.125 21.375 18.615 21.375 18C21.375 17.385 21.885 16.875 22.5 16.875H28.5C29.115 16.875 29.625 17.385 29.625 18C29.625 18.615 29.115 19.125 28.5 19.125ZM28.5 13.125H21C20.385 13.125 19.875 12.615 19.875 12C19.875 11.385 20.385 10.875 21 10.875H28.5C29.115 10.875 29.625 11.385 29.625 12C29.625 12.615 29.115 13.125 28.5 13.125Z" fill="#455A64" fill-opacity="0.5"/>
</svg>
