<svg width="31" height="34" viewBox="0 0 31 34" fill="none" xmlns="http://www.w3.org/2000/svg">
<path d="M21.9584 5.3125H13.2784C11.4572 5.3125 9.72633 6.14833 8.49925 7.63583L3.93967 13.1325C2.11842 15.3283 2.11842 18.6717 3.93967 20.8675L8.49925 26.3642C9.72633 27.8375 11.4572 28.6875 13.2784 28.6875H21.9584C25.5234 28.6875 28.4168 25.5142 28.4168 21.6042V12.3958C28.4168 8.48583 25.5234 5.3125 21.9584 5.3125ZM21.3513 19.7483C21.7259 20.1592 21.7259 20.8392 21.3513 21.25C21.1576 21.4625 20.9122 21.5617 20.6668 21.5617C20.4213 21.5617 20.1759 21.4625 19.9822 21.25L17.4763 18.5017L14.9705 21.25C14.7768 21.4625 14.5313 21.5617 14.2859 21.5617C14.0405 21.5617 13.7951 21.4625 13.6013 21.25C13.2268 20.8392 13.2268 20.1592 13.6013 19.7483L16.1072 17L13.6013 14.2517C13.2268 13.8408 13.2268 13.1608 13.6013 12.75C13.9759 12.3392 14.5959 12.3392 14.9705 12.75L17.4763 15.4983L19.9822 12.75C20.3568 12.3392 20.9768 12.3392 21.3513 12.75C21.7259 13.1608 21.7259 13.8408 21.3513 14.2517L18.8455 17L21.3513 19.7483Z" fill="#455A64" fill-opacity="0.5"/>
</svg>
