<svg width="36" height="36" viewBox="0 0 36 36" fill="none" xmlns="http://www.w3.org/2000/svg">
<path d="M25.5 5.25H10.5C6 5.25 3 7.5 3 12.75V23.25C3 28.5 6 30.75 10.5 30.75H25.5C30 30.75 33 28.5 33 23.25V12.75C33 7.5 30 5.25 25.5 5.25ZM26.205 14.385L21.51 18.135C20.52 18.93 19.26 19.32 18 19.32C16.74 19.32 15.465 18.93 14.49 18.135L9.795 14.385C9.315 13.995 9.24 13.275 9.615 12.795C10.005 12.315 10.71 12.225 11.19 12.615L15.885 16.365C17.025 17.28 18.96 17.28 20.1 16.365L24.795 12.615C25.275 12.225 25.995 12.3 26.37 12.795C26.76 13.275 26.685 13.995 26.205 14.385Z" fill="#455A64" fill-opacity="0.5"/>
</svg>
