<svg width="17" height="17" viewBox="0 0 17 17" fill="none" xmlns="http://www.w3.org/2000/svg">
<path d="M5.94287 13.0973V5.90059C5.94287 5.61726 6.02787 5.34101 6.1837 5.10726L8.11745 2.23143C8.42204 1.77101 9.17995 1.44518 9.82454 1.68601C10.5187 1.91976 10.9791 2.69893 10.8304 3.39309L10.462 5.70934C10.4337 5.92184 10.4904 6.11309 10.6108 6.26184C10.7312 6.39643 10.9083 6.48143 11.0995 6.48143H14.0108C14.5704 6.48143 15.052 6.70809 15.3354 7.10476C15.6045 7.48726 15.6541 7.98309 15.477 8.48601L13.7345 13.7914C13.515 14.6698 12.5587 15.3852 11.6095 15.3852H8.84704C8.37245 15.3852 7.70662 15.2223 7.40204 14.9177L6.49537 14.2164C6.14829 13.9543 5.94287 13.5364 5.94287 13.0973Z" fill="#171717" fill-opacity="0.5"/>
<path d="M3.6905 4.51953H2.96091C1.863 4.51953 1.41675 4.94453 1.41675 5.99286V13.1187C1.41675 14.167 1.863 14.592 2.96091 14.592H3.6905C4.78841 14.592 5.23466 14.167 5.23466 13.1187V5.99286C5.23466 4.94453 4.78841 4.51953 3.6905 4.51953Z" fill="#171717" fill-opacity="0.5"/>
</svg>
