<svg width="256" height="274" viewBox="0 0 256 274" fill="none" xmlns="http://www.w3.org/2000/svg">
<rect x="190.2" y="125.863" width="3.8961" height="16.6168" fill="#008E4A"/>
<rect x="183.116" y="125.863" width="3.89609" height="16.6168" fill="#008E4A"/>
<rect x="177.449" y="146.016" width="21.9598" height="8.83871" fill="#008E4A"/>
<rect x="68.7129" y="125.156" width="3.89609" height="17.3239" fill="#008E4A"/>
<rect x="61.6289" y="125.156" width="3.89609" height="17.3239" fill="#008E4A"/>
<rect x="55.2539" y="146.369" width="23.3766" height="8.83871" fill="#008E4A"/>
<g clip-path="url(#clip0_214_1500)">
<path d="M95.5317 42.6843L92.8218 43.0765L92.7738 43.0862C92.7011 43.1055 92.6349 43.1436 92.5818 43.1968C92.5288 43.2499 92.4908 43.3162 92.4718 43.3888C92.4528 43.4614 92.4534 43.5378 92.4737 43.61C92.4939 43.6823 92.5329 43.7479 92.5869 43.8002L94.5501 45.7077L94.0871 48.4021L94.0816 48.4488C94.0772 48.5238 94.0928 48.5986 94.1268 48.6656C94.1609 48.7326 94.2122 48.7894 94.2754 48.8301C94.3387 48.8709 94.4117 48.8941 94.4869 48.8974C94.5621 48.9007 94.6368 48.884 94.7034 48.849L97.1271 47.5771L99.5452 48.849L99.5877 48.8685C99.6578 48.8961 99.734 48.9045 99.8085 48.893C99.8829 48.8815 99.953 48.8504 100.011 48.8029C100.07 48.7554 100.115 48.6933 100.141 48.6229C100.168 48.5524 100.175 48.4763 100.162 48.4021L99.6986 45.7077L101.663 43.7998L101.696 43.7637C101.743 43.7056 101.774 43.6359 101.786 43.5618C101.797 43.4878 101.789 43.412 101.762 43.3422C101.734 43.2724 101.689 43.211 101.63 43.1644C101.571 43.1178 101.501 43.0876 101.427 43.0769L98.7169 42.6843L97.5055 40.2336C97.4705 40.1626 97.4162 40.1028 97.3489 40.061C97.2816 40.0192 97.2038 39.9971 97.1245 39.9971C97.0452 39.9971 96.9675 40.0192 96.9002 40.061C96.8329 40.1028 96.7786 40.1626 96.7435 40.2336L95.5317 42.6843Z" fill="#008E4A"/>
</g>
<g clip-path="url(#clip1_214_1500)">
<path d="M77.6919 58.5124L74.9819 58.9046L74.9339 58.9143C74.8613 58.9336 74.795 58.9717 74.742 59.0249C74.6889 59.0781 74.651 59.1443 74.632 59.2169C74.613 59.2895 74.6136 59.3659 74.6338 59.4382C74.654 59.5104 74.6931 59.5761 74.747 59.6283L76.7103 61.5358L76.2473 64.2303L76.2418 64.2769C76.2373 64.3519 76.2529 64.4268 76.287 64.4938C76.321 64.5608 76.3723 64.6176 76.4356 64.6583C76.4989 64.699 76.5718 64.7222 76.647 64.7255C76.7222 64.7288 76.797 64.7121 76.8636 64.6771L79.2872 63.4052L81.7054 64.6771L81.7478 64.6966C81.818 64.7242 81.8942 64.7327 81.9686 64.7211C82.0431 64.7096 82.1131 64.6785 82.1716 64.631C82.23 64.5836 82.2748 64.5214 82.3012 64.451C82.3277 64.3806 82.3349 64.3044 82.3221 64.2303L81.8587 61.5358L83.8228 59.6279L83.8559 59.5919C83.9032 59.5337 83.9343 59.464 83.9458 59.39C83.9574 59.3159 83.9491 59.2401 83.9218 59.1703C83.8944 59.1005 83.8491 59.0392 83.7903 58.9926C83.7315 58.946 83.6613 58.9158 83.587 58.905L80.8771 58.5124L79.6657 56.0618C79.6306 55.9908 79.5764 55.931 79.509 55.8892C79.4417 55.8474 79.364 55.8252 79.2847 55.8252C79.2054 55.8252 79.1277 55.8474 79.0603 55.8892C78.993 55.931 78.9387 55.9908 78.9037 56.0618L77.6919 58.5124Z" fill="#008E4A"/>
</g>
<g clip-path="url(#clip2_214_1500)">
<path d="M55.0385 99.4977L52.3286 99.8899L52.2806 99.8997C52.208 99.9189 52.1417 99.9571 52.0887 100.01C52.0356 100.063 51.9976 100.13 51.9786 100.202C51.9596 100.275 51.9603 100.351 51.9805 100.424C52.0007 100.496 52.0398 100.561 52.0937 100.614L54.0569 102.521L53.594 105.216L53.5884 105.262C53.584 105.337 53.5996 105.412 53.6336 105.479C53.6677 105.546 53.719 105.603 53.7823 105.644C53.8455 105.684 53.9185 105.708 53.9937 105.711C54.0689 105.714 54.1437 105.697 54.2103 105.662L56.6339 104.391L59.0521 105.662L59.0945 105.682C59.1646 105.71 59.2408 105.718 59.3153 105.706C59.3898 105.695 59.4598 105.664 59.5183 105.616C59.5767 105.569 59.6215 105.507 59.6479 105.436C59.6744 105.366 59.6816 105.29 59.6688 105.216L59.2054 102.521L61.1695 100.613L61.2026 100.577C61.2499 100.519 61.2809 100.449 61.2925 100.375C61.3041 100.301 61.2958 100.225 61.2685 100.156C61.2411 100.086 61.1958 100.025 61.137 99.9779C61.0782 99.9313 61.008 99.9011 60.9337 99.8904L58.2238 99.4977L57.0124 97.0471C56.9773 96.9761 56.9231 96.9163 56.8557 96.8745C56.7884 96.8327 56.7107 96.8105 56.6314 96.8105C56.5521 96.8105 56.4744 96.8327 56.407 96.8745C56.3397 96.9163 56.2854 96.9761 56.2504 97.0471L55.0385 99.4977Z" fill="#008E4A"/>
</g>
<rect x="123.752" y="125.693" width="8.49509" height="29.1136" fill="#008E4A"/>
<ellipse cx="53.6609" cy="90.5917" rx="1.55743" ry="1.55461" fill="#008E4A"/>
<g clip-path="url(#clip3_214_1500)">
<path d="M200.601 101.219L198.071 100.171L198.025 100.155C197.953 100.134 197.876 100.133 197.804 100.152C197.731 100.171 197.664 100.208 197.611 100.261C197.557 100.313 197.518 100.379 197.499 100.452C197.479 100.524 197.479 100.6 197.499 100.673L198.207 103.315L196.428 105.393L196.399 105.43C196.357 105.492 196.332 105.565 196.327 105.64C196.322 105.714 196.336 105.789 196.37 105.857C196.403 105.924 196.454 105.981 196.517 106.023C196.58 106.064 196.653 106.088 196.728 106.092L199.462 106.237L200.887 108.565L200.914 108.604C200.96 108.663 201.021 108.709 201.091 108.738C201.161 108.766 201.237 108.775 201.312 108.764C201.386 108.753 201.457 108.722 201.515 108.675C201.574 108.628 201.619 108.567 201.646 108.497L202.63 105.945L205.296 105.309L205.343 105.295C205.413 105.27 205.475 105.226 205.523 105.168C205.571 105.11 205.603 105.041 205.615 104.967C205.628 104.893 205.62 104.817 205.593 104.747C205.567 104.677 205.522 104.615 205.464 104.568L203.337 102.846L203.553 100.122C203.559 100.043 203.543 99.9639 203.507 99.8936C203.47 99.8232 203.415 99.7645 203.347 99.724C203.279 99.6835 203.201 99.6628 203.121 99.6643C203.042 99.6658 202.965 99.6895 202.898 99.7326L200.601 101.219Z" fill="#008E4A"/>
</g>
<ellipse cx="1.5567" cy="1.55535" rx="1.5567" ry="1.55535" transform="matrix(0.859495 0.511144 -0.512517 0.858677 203.443 90.7324)" fill="#008E4A"/>
<ellipse cx="105.763" cy="36.6044" rx="1.55743" ry="1.55461" fill="#008E4A"/>
<g clip-path="url(#clip4_214_1500)">
<path d="M157.964 46.475L158.544 49.1462L158.557 49.1933C158.582 49.2643 158.625 49.3276 158.681 49.3767C158.738 49.4258 158.807 49.459 158.881 49.4729C158.955 49.4868 159.031 49.4808 159.102 49.4557C159.173 49.4305 159.236 49.387 159.284 49.3297L161.054 47.242L163.779 47.5156L163.826 47.5178C163.901 47.517 163.975 47.4963 164.039 47.4577C164.104 47.4191 164.157 47.3641 164.193 47.2983C164.23 47.2325 164.248 47.1582 164.246 47.0831C164.244 47.0079 164.222 46.9347 164.182 46.8708L162.743 44.5459L163.846 42.0495L163.862 42.0058C163.885 41.9341 163.888 41.8576 163.871 41.7843C163.855 41.7109 163.819 41.6434 163.767 41.5885C163.716 41.5336 163.65 41.4933 163.578 41.4719C163.506 41.4504 163.429 41.4486 163.356 41.4664L160.696 42.1154L158.652 40.2924L158.614 40.2619C158.552 40.2188 158.481 40.1928 158.406 40.1864C158.331 40.18 158.256 40.1936 158.188 40.2256C158.12 40.2577 158.062 40.3072 158.019 40.369C157.977 40.4308 157.952 40.5027 157.946 40.5774L157.742 43.3032L155.377 44.68C155.309 44.7199 155.253 44.7781 155.216 44.848C155.179 44.918 155.162 44.9969 155.167 45.0759C155.173 45.1548 155.201 45.2307 155.247 45.2948C155.293 45.359 155.357 45.4088 155.43 45.4388L157.964 46.475Z" fill="#008E4A"/>
</g>
<g clip-path="url(#clip5_214_1500)">
<path d="M175.023 63.1381L175.604 65.8092L175.617 65.8564C175.641 65.9274 175.684 65.9907 175.741 66.0398C175.798 66.0889 175.867 66.1221 175.94 66.136C176.014 66.1499 176.091 66.1439 176.161 66.1188C176.232 66.0936 176.295 66.0501 176.344 65.9928L178.113 63.9051L180.838 64.1787L180.885 64.1809C180.961 64.1801 181.034 64.1594 181.099 64.1208C181.163 64.0822 181.217 64.0272 181.253 63.9614C181.289 63.8955 181.307 63.8213 181.305 63.7461C181.304 63.671 181.282 63.5978 181.242 63.5339L179.802 61.209L180.905 58.7126L180.922 58.6689C180.944 58.5972 180.947 58.5207 180.931 58.4474C180.914 58.374 180.878 58.3064 180.827 58.2515C180.775 58.1966 180.71 58.1564 180.638 58.135C180.565 58.1135 180.489 58.1116 180.416 58.1295L177.755 58.7785L175.712 56.9555L175.673 56.925C175.612 56.8819 175.54 56.8559 175.465 56.8495C175.39 56.8431 175.315 56.8567 175.247 56.8887C175.18 56.9208 175.121 56.9702 175.079 57.032C175.036 57.0938 175.011 57.1658 175.006 57.2405L174.802 59.9663L172.437 61.3431C172.368 61.3829 172.312 61.4411 172.275 61.5111C172.238 61.5811 172.222 61.66 172.227 61.739C172.233 61.8179 172.26 61.8938 172.307 61.9579C172.353 62.022 172.417 62.0719 172.49 62.1019L175.023 63.1381Z" fill="#008E4A"/>
</g>
<ellipse cx="1.55463" cy="1.55742" rx="1.55463" ry="1.55742" transform="matrix(-0.069709 -0.997567 0.997585 -0.0694583 149.73 38.3672)" fill="#008E4A"/>
<path d="M54.0922 230.559L57.3487 230.135L127.716 261.51L198.792 230.276H199.925C199.925 230.276 203.213 230.276 202.332 230.841L200.349 232.113L195.96 234.516L189.306 237.766L179.536 242.854L158.723 252.041L143.149 258.542L135.787 261.934L131.751 263.418L128.424 264.902H127.716L111.151 257.835L94.7271 250.627L77.8785 243.42L61.8794 235.223L57.915 233.244L55.6496 231.831C55.6496 231.831 54.2338 230.841 54.0922 230.7C53.9506 230.559 54.0922 230.559 54.0922 230.559Z" fill="#A9C5FC" stroke="#A9C5FC"/>
<path d="M37.244 154.948C36.8192 155.231 48.2523 155.09 48.2876 154.807C48.3229 154.524 48.5707 150.567 48.5707 150.567L48.7123 148.447V147.175C48.7123 147.175 48.7123 146.469 48.4291 146.327C48.146 146.186 47.438 146.893 47.438 146.893L45.5974 148.306L42.7657 150.426L39.934 152.687C39.934 152.687 37.6688 154.666 37.244 154.948Z" fill="#A9C5FC" stroke="#A9C5FC"/>
<path d="M218.603 154.654C219.032 154.935 207.47 154.795 207.434 154.513C207.398 154.231 207.147 150.288 207.147 150.288L207.004 148.176V146.908C207.004 146.908 207.004 146.204 207.291 146.064C207.577 145.923 208.293 146.627 208.293 146.627L210.154 148.035L213.018 150.147L215.882 152.401C215.882 152.401 218.173 154.372 218.603 154.654Z" fill="#A9C5FC" stroke="#A9C5FC"/>
<path d="M15.865 166.114L14.871 165.125L13.8799 164.135L242.483 163.994L241.279 165.054L240.074 166.114H15.865Z" fill="#008E4A" stroke="#008E4A"/>
<path d="M125.216 0.953664C124.423 1.82048 124.348 2.31042 124.121 8.37811C123.97 11.9584 123.857 18.8176 123.857 23.6039V32.3097L122.309 32.9881C120.572 33.7795 118.043 36.1538 117.174 37.8121C116.079 39.9226 115.551 42.4477 115.551 45.4627V48.5154L113.965 48.9676C111.284 49.759 105.432 52.661 102.94 54.4323C99.1646 57.1081 95.2002 61.6306 93.0481 65.5878L91.1981 69.0928L84.7796 71.5048C63.3342 79.5322 63.372 79.5322 62.9189 80.2483C62.7679 80.4367 62.6168 82.5095 62.5413 84.8085L62.3525 89.0295L65.071 91.5922C66.5812 92.9867 68.6578 94.8334 69.6772 95.7002L71.565 97.2454L71.7538 103.125C71.9803 110.021 71.9803 110.059 75.7937 110.059H78.1723V112.207V114.393H65.4108C52.838 114.393 52.687 114.393 51.3278 115.26C49.3645 116.466 48.7226 118.313 48.7226 122.609V126.076L46.6461 126.943C42.795 128.639 38.453 134.443 37.5846 139.192C37.3959 140.247 37.2071 140.511 36.9805 140.134C36.4897 139.455 35.206 135.121 34.8285 133.011L34.4886 131.24L37.8489 127.358C41.8133 122.722 44.1164 118.501 44.4562 115.26C44.645 113.225 44.6072 113.036 43.5123 111.981C42.8705 111.341 42.0398 110.813 41.6245 110.813C39.6235 110.813 35.6213 114.921 33.7713 118.878C32.9407 120.687 32.9029 120.725 32.6386 119.707C32.2988 118.237 32.6386 107.723 33.0917 106.931C33.2805 106.592 34.6397 105.725 36.0744 105.009C40.7939 102.785 44.4185 98.979 45.5511 95.1726C46.0797 93.3259 46.0797 93.0244 45.5134 92.0068C44.947 90.8385 44.343 90.6124 42.3419 90.8008C40.3408 90.9892 35.8101 94.1173 34.3376 96.3786C33.4315 97.7353 33.4315 97.3207 34.4131 92.6098C35.7724 85.8637 35.7346 86.0145 37.3203 85.7507C40.3031 85.2607 42.0776 84.7331 44.343 83.6402C50.1951 80.7759 52.4982 76.5172 49.1002 74.7082C47.7032 73.9921 43.5878 74.2936 41.6623 75.2358C40.7561 75.6881 40.0388 75.8765 40.0388 75.6881C40.0388 75.2735 42.946 69.432 43.5878 68.5275C44.0032 67.9621 44.3807 67.9244 46.7593 68.3013C50.0441 68.7913 53.0268 68.339 56.3116 66.8692C59.181 65.5878 60.5025 64.0803 60.3515 62.2713C60.1627 60.0101 58.8412 59.3694 54.4616 59.3694C51.3656 59.3694 50.5727 59.4824 49.4023 60.1985C48.6094 60.6508 47.9675 60.9146 47.9675 60.7638C47.9675 60.5377 52.8003 54.2062 53.5932 53.4147C53.7442 53.264 54.8769 53.3771 56.0851 53.7162C60.0872 54.7338 66.1659 54.3192 69.1109 52.7741C71.9048 51.3419 72.6222 49.0053 70.7721 47.5355C69.4884 46.5179 66.0526 45.8395 63.674 46.141L61.7485 46.3672L64.8067 43.3899L67.8649 40.4125L70.0925 41.204C73.1885 42.2592 78.7764 42.523 80.9662 41.6939C81.8724 41.3547 82.8918 40.7517 83.2694 40.3372C84.0622 39.4703 84.1377 37.9252 83.4204 37.0583C82.7408 36.2669 79.154 34.684 77.9835 34.684C76.36 34.684 76.5866 34.0057 78.7009 32.4605C81.004 30.7268 81.2683 30.6515 81.9479 31.4806C82.703 32.3851 87.0827 33.5534 89.8011 33.5534C94.3319 33.5534 98.485 31.7821 99.1269 29.5585C99.4289 28.3902 97.8054 26.6189 95.9554 26.0536C92.5951 25.0737 88.6685 25.1114 84.5908 26.242C83.8357 26.4681 84.1 26.0536 85.9878 24.0184C88.5552 21.2673 90.4052 17.8754 91.0848 14.7096C91.6134 12.1469 91.2736 10.6771 90.0654 10.1117C88.7062 9.50874 87.3848 10.0364 85.2704 11.9961C81.6081 15.388 79.305 20.1743 79.305 24.433V26.6566L77.2284 28.051C76.058 28.8048 74.4345 30.0485 73.6038 30.8022C71.8671 32.3474 71.414 32.272 72.3201 30.5007C74.7743 25.8275 75.1518 19.3829 73.113 18.0261C72.1691 17.3854 70.6589 17.7623 69.4507 18.9306C66.8078 21.6064 65.1842 27.2219 65.4108 33.2142L65.524 36.7945L63.4475 38.6035C62.3148 39.6211 60.1249 41.6185 58.6525 43.0507C55.783 45.7642 55.3677 45.9149 56.7269 43.729C59.9362 38.5282 61.6729 32.4605 60.7668 29.8223C59.1433 25.1491 52.8758 30.953 50.7992 39.0181C50.1574 41.6185 50.0441 45.9149 50.6482 47.9877C51.0258 49.3445 50.9502 49.5329 49.7043 51.0027C48.9492 51.8696 47.2879 53.9801 45.9665 55.676C44.6072 57.485 43.5878 58.5402 43.5123 58.2387C43.4368 57.9372 43.7389 55.9775 44.1542 53.867C45.0981 49.2314 45.2113 45.0104 44.343 43.8044C43.3991 42.41 42.4552 42.1085 41.1715 42.7869C38.604 44.1059 36.6407 48.9676 36.6407 53.9424C36.6407 57.8996 37.2071 60.1985 38.7551 62.8366C40.2653 65.2863 40.3786 64.6079 37.6224 69.6958C36.5275 71.6932 36.2632 71.9947 36.0366 71.3917C34.7152 67.6229 32.2233 64.2311 29.5426 62.5351C27.1262 60.9899 25.8425 61.1407 24.5588 63.1381C21.6894 67.5853 21.1986 74.7082 23.4262 79.3438C24.5966 81.7181 27.315 84.62 29.3161 85.5999C30.8641 86.316 31.0151 86.5421 30.8263 87.4089C30.7131 87.9365 30.1845 90.1601 29.6936 92.346C29.2028 94.5319 28.7497 96.1147 28.7497 95.8509C28.6742 94.9464 24.5966 90.9892 22.8221 90.0847C20.2547 88.8034 16.7811 88.6149 15.4596 89.6702C14.0627 90.7254 13.4586 93.2505 13.7229 96.6801C13.9872 100.147 15.1198 102.748 17.4607 105.348C19.6128 107.723 22.1802 109.117 25.4272 109.758L27.9569 110.248V113.941V117.672L26.7487 116.617C22.6333 113.187 13.5341 111.491 11.6463 113.828C10.2871 115.524 11.0422 121.403 13.1565 125.285C14.5157 127.81 17.2342 130.486 19.5373 131.654C21.7649 132.785 25.465 133.538 28.0701 133.35L29.9579 133.237L30.8263 136.44C31.3171 138.212 31.8457 140.058 31.959 140.548L32.2233 141.491L31.0529 140.624C26.5977 137.496 19.8016 136.893 15.0821 139.305C12.8922 140.398 10.3626 142.546 10.0983 143.563C9.75849 144.882 10.9667 146.616 15.1198 150.762L19.3108 154.945L13.3831 154.87L7.49314 154.794L4.39715 156.415C2.73588 157.282 1.03687 158.262 0.697063 158.601C-0.58664 159.694 -0.133568 160.9 2.35833 163.199C7.45538 167.872 12.3637 171.904 13.6851 172.507L15.0821 173.186L15.1198 182.796V192.444L13.2698 194.442C11.08 196.816 9.07889 200.585 8.81459 202.846C8.66357 204.127 8.81459 204.693 9.4942 205.522C10.1738 206.426 10.5136 206.577 11.4575 206.389C13.0055 206.087 13.6474 205.446 16.026 201.866C19.8016 196.175 23.4639 193.537 30.109 191.879C32.6386 191.2 41.549 189.844 41.7755 190.07C41.8133 190.108 41.9643 194.818 42.1154 200.509C42.3419 209.102 42.3041 210.949 41.8888 211.288C41.5868 211.514 39.6612 212.004 37.5846 212.381C31.5059 213.474 22.2935 215.81 16.2903 217.808C9.94727 219.918 3.83081 222.481 3.33998 223.197C3.18896 223.461 3.07569 224.177 3.11344 224.78C3.26447 226.061 3.41549 226.174 13.232 230.622C23.0486 235.031 24.9364 236.011 24.9364 236.539C24.9364 236.765 22.4067 240.76 19.3108 245.395C16.2148 250.031 13.5341 254.289 13.4208 254.892C13.081 256.136 14.0627 257.794 15.0821 257.794C15.4596 257.794 18.8199 256.928 22.4823 255.872C34.0733 252.593 45.6644 249.993 59.1055 247.656L65.524 246.526L71.565 249.315C87.649 256.664 127.255 274 127.972 274C128.69 274 137.185 270.344 156.327 261.865C159.121 260.621 164.067 258.435 167.276 257.041C170.486 255.608 176.942 252.744 181.624 250.634L190.119 246.827L192.573 247.016C200.804 247.732 220.663 251.99 233.236 255.759C237.012 256.89 240.447 257.794 240.825 257.794C241.769 257.794 242.788 256.626 242.788 255.571C242.788 254.365 242.109 253.196 236.257 244.302C233.236 239.704 231.122 236.124 231.31 235.936C231.499 235.785 236.219 233.561 241.807 231.074C247.395 228.549 252.303 226.212 252.68 225.873C253.511 225.119 253.549 224.29 252.794 223.235C252.227 222.406 245.544 219.617 238.522 217.243C233.84 215.66 225.987 213.662 220.135 212.569C217.756 212.117 215.415 211.702 215 211.589C214.547 211.514 214.094 211.099 213.98 210.647C213.641 209.404 213.641 190.409 213.98 190.221C214.547 189.957 222.929 191.087 225.987 191.841C232.405 193.462 236.219 196.213 240.183 202.054C243.279 206.652 244.374 207.293 246.337 205.748C248.187 204.278 247.508 201.075 244.374 196.477C243.543 195.271 242.411 193.876 241.882 193.386L240.9 192.482V182.985V173.487L242.713 172.357C243.694 171.716 246.677 169.304 249.358 166.93C252.039 164.555 254.606 162.332 255.097 161.955C256.192 161.126 256.305 159.43 255.361 158.563C254.983 158.262 253.322 157.244 251.661 156.339L248.64 154.719L242.902 154.87C239.73 154.907 237.125 154.832 237.125 154.681C237.125 154.53 239.088 152.42 241.467 150.008C246.337 145.071 246.677 144.279 244.827 142.131C240.9 137.458 231.386 136.44 225.156 140.058C224.25 140.586 223.533 140.925 223.533 140.85C223.533 140.774 223.759 139.983 224.061 139.041C224.363 138.136 224.892 136.44 225.194 135.272L225.798 133.124L228.139 133.312C230.895 133.538 234.633 132.709 236.936 131.353C238.862 130.26 242.109 126.868 243.09 124.908C244.336 122.496 245.054 119.481 245.054 116.843C245.054 113.376 244.487 112.886 240.561 112.923C237.012 112.923 233.01 114.092 230.367 115.863L228.441 117.182V113.639V110.135L230.216 109.871C235.162 109.155 239.201 106.253 241.354 101.881C242.373 99.8081 242.6 98.8659 242.713 96.1524C242.902 92.4214 242.335 90.537 240.749 89.4817C239.504 88.6903 236.068 88.9164 233.953 89.8963C232.179 90.7254 229.46 93.1751 228.441 94.7957C227.384 96.4916 226.931 96.4539 226.931 94.6826C226.931 93.9289 226.591 91.7807 226.176 89.934C225.76 88.0873 225.458 86.5421 225.534 86.5044C229.611 84.2055 231.462 82.3211 233.123 78.7785C234.142 76.5926 234.255 75.9519 234.255 72.9369C234.218 68.942 232.821 64.118 231.235 62.3844C230.065 61.103 228.819 61.2538 226.327 62.9874C224.816 64.0049 221.267 68.2259 221.267 68.9797C221.267 69.1305 221.003 69.8842 220.663 70.6756L220.097 72.0701L218.247 68.4898L216.397 64.9094L217.718 62.309C219.493 58.8794 220.059 55.2991 219.455 51.3419C218.398 44.5582 214.245 40.2241 211.979 43.616C210.922 45.2742 210.922 48.3646 211.979 53.6032C212.508 56.2413 212.961 58.6156 212.961 58.8417C212.961 59.1056 212.244 58.3141 211.413 57.0704C210.545 55.8644 208.808 53.6786 207.6 52.2464C205.599 49.9475 205.372 49.4952 205.599 48.4777C206.92 42.0331 205.259 34.9478 201.257 30.463C199.293 28.2395 197.821 27.5988 196.575 28.4279C194.159 29.9731 195.027 35.2117 198.803 42.2215C199.746 43.9552 200.502 45.4627 200.502 45.5757C200.502 45.6888 199.256 44.5959 197.783 43.126C196.273 41.6562 194.083 39.6588 192.95 38.6412L190.874 36.8322L190.836 32.0836C190.798 28.3902 190.647 26.8073 190.043 24.9983C188.118 19.1191 184.908 16.2548 182.794 18.5161C181.171 20.2874 181.586 26.0159 183.662 30.1238C184.795 32.3097 184.531 32.5735 182.945 30.9153C182.341 30.2746 180.793 29.0686 179.472 28.2395C177.357 26.845 177.093 26.5435 177.093 25.4883C177.093 21.0034 174.828 15.8026 171.354 12.373C168.787 9.81024 166.937 9.20724 165.691 10.4886C165.087 11.0539 164.936 11.6946 164.936 13.1267C165.049 16.594 167.125 20.8527 170.599 24.5838C171.694 25.7898 172.109 26.4305 171.618 26.242C168.409 25.0737 163.388 25.036 160.027 26.2043C158.026 26.9204 157.649 27.2596 157.271 28.7294C157.045 29.5962 157.233 30.0108 158.29 31.066C161.16 33.9303 168.371 34.4202 173.053 32.1213L175.394 30.953L176.715 31.8951C179.585 33.8926 179.962 34.2695 179.358 34.4202C179.056 34.4956 177.773 34.8725 176.564 35.2493C174.186 35.9277 172.185 37.5106 172.185 38.7166C172.185 39.8095 173.28 41.1286 174.677 41.6939C176.149 42.3346 181.51 42.41 183.7 41.8447C184.531 41.6185 185.852 41.1663 186.607 40.8271L188.004 40.2618L190.836 42.8245C194.385 46.028 194.574 46.4049 192.422 46.141C190.383 45.8395 186.834 46.5556 185.626 47.5355C184.946 48.1008 184.644 48.6661 184.644 49.5329C184.644 51.0404 185.626 52.0203 188.231 53.2263C190.949 54.4323 196.764 54.6207 200.011 53.6032L202.352 52.8871L205.183 56.5805C206.769 58.6156 208.053 60.3869 208.053 60.5C208.053 60.6131 207.486 60.4246 206.845 60.0854C206.127 59.7086 204.39 59.3694 202.729 59.2563C196.16 58.8794 193.819 62.4221 198.387 65.8516C201.37 68.1129 205.334 68.942 209.714 68.2259C212.055 67.8491 212.357 67.8868 212.81 68.4898C213.527 69.3943 216.737 75.8765 216.586 76.065C216.51 76.1403 215.68 75.8011 214.773 75.3489C212.886 74.4067 208.77 73.9921 207.184 74.5951C205.938 75.0851 205.221 76.4795 205.561 77.8363C206.278 80.6252 211.828 84.3562 216.548 85.223C220.21 85.9014 220.323 85.9768 221.003 88.6149C221.683 91.14 222.778 96.9816 222.589 97.17C222.551 97.2077 222.023 96.6424 221.456 95.8886C220.059 94.0796 216.246 91.3284 214.434 90.8385C213.301 90.537 212.735 90.537 211.866 90.9892C207.751 93.1374 212.961 101.919 220.323 105.197L223.042 106.441L223.457 108.552C223.948 110.813 223.986 114.506 223.571 118.162C223.382 120.084 223.268 120.272 223.004 119.481C221.947 116.504 217.379 111.491 215.264 111.001C213.792 110.7 212.319 111.529 211.979 112.923C210.998 116.805 213.603 122.345 219.304 128.564C220.437 129.77 221.267 131.051 221.267 131.541C221.267 132.559 218.964 139.455 218.587 139.455C218.473 139.455 218.247 138.89 218.134 138.212C217.454 133.878 212.923 128.074 209.261 126.792L207.298 126.076V122.27C207.298 117.936 206.731 116.617 204.277 115.185C203.031 114.431 202.314 114.393 190.308 114.318L177.659 114.242L177.546 112.17L177.433 110.059H180.038C184.078 110.059 184.04 110.097 184.191 103.162L184.304 97.2831L188.684 93.5897C191.063 91.5922 193.177 89.6325 193.366 89.2933C193.668 88.6903 193.517 82.698 193.101 80.7382C192.875 79.6076 191.327 78.8915 178.981 74.2183C173.468 72.1455 168.031 70.0726 166.823 69.6204C164.822 68.829 164.633 68.6405 163.501 66.3793C159.989 59.294 152.74 53.1132 143.641 49.5329L140.092 48.1385V44.822C140.092 38.9804 137.827 35.0609 133.334 33.0258L131.031 32.0082V26.3551V20.7396H138.959H146.888V17.4985C146.888 15.7272 146.775 14.3704 146.586 14.4835C146.435 14.5589 142.924 14.7096 138.771 14.7473C131.257 14.8604 131.219 14.8604 131.106 14.0312L130.993 13.2021H138.922H146.888V9.99868V6.79524H138.959H131.031V4.19479C131.031 1.82048 130.955 1.51898 130.049 0.802914C128.614 -0.327713 126.349 -0.252337 125.216 0.953664ZM129.634 38.9804C131.899 39.9226 132.692 41.204 132.843 44.1059L132.994 46.744H128.086H123.177L122.951 45.6888C122.611 44.219 123.253 41.204 124.084 40.2618C124.876 39.395 126.689 38.4905 127.746 38.4528C128.123 38.4528 128.954 38.6789 129.634 38.9804ZM136.883 54.8469C143.301 56.7689 149.946 60.4623 153.495 64.0803C155.081 65.7009 155.043 65.927 153.231 64.9848C152.589 64.6456 150.588 63.8165 148.814 63.1381C147.039 62.4974 141.64 60.4246 136.807 58.6156L128.048 55.2991L121.327 57.8619C117.627 59.2563 111.813 61.5176 108.377 62.8743C104.941 64.1934 101.883 65.3994 101.581 65.5124C100.599 65.8516 103.96 62.5728 106.3 60.8769C110.265 58.0503 114.984 55.9398 120.648 54.4323C125.367 53.1509 131.861 53.3394 136.883 54.8469ZM148.851 70.148C160.329 74.3313 170.561 78.1755 171.618 78.6654C172.638 79.193 174.072 79.8337 174.828 80.0975L176.149 80.5498L174.072 81.2282L171.996 81.8688L168.409 80.7382C166.446 80.1352 161.424 78.4393 157.271 76.9695C142.471 71.7686 133.825 68.6782 131.144 67.6606L128.388 66.6431L124.725 67.9621C100.524 76.7433 85.1194 81.9819 82.5142 82.2834C81.4571 82.3965 79.6448 82.2834 78.4366 82.0196L76.2467 81.5673L79.9468 80.1352C81.9857 79.3815 88.3287 77.0072 94.0298 74.9343C114.833 67.3968 124.084 64.0049 125.934 63.3266C126.991 62.9497 127.859 62.6105 127.897 62.6105C127.972 62.5728 137.411 66.0024 148.851 70.148ZM30.562 73.2007C32.11 76.4418 32.9784 80.286 32.1478 80.286C31.4682 80.286 29.9957 78.6654 29.1651 77.0448C27.8814 74.5575 27.6171 70.1103 28.712 70.1103C28.9008 70.1103 29.7314 71.5048 30.562 73.2007ZM228.063 72.8615C228.063 75.7258 226.818 78.6654 225.081 79.9091C224.401 80.3613 223.797 80.7005 223.722 80.6252C223.684 80.5498 223.759 79.5322 223.948 78.4016C224.288 76.1026 227.157 69.9596 227.724 70.2988C227.912 70.4495 228.063 71.5801 228.063 72.8615ZM131.182 75.4996C134.051 77.0825 156.554 85.223 159.461 85.713C160.254 85.8637 162.368 86.5421 164.18 87.2205C167.692 88.5395 170.901 89.2556 170.486 88.5772C170.372 88.3511 170.599 88.2004 171.052 88.2004C171.505 88.2004 171.732 88.3511 171.618 88.5772C171.505 88.7657 171.618 88.841 171.92 88.728C172.373 88.5772 178.075 90.5747 178.679 91.1777C178.83 91.2907 155.912 91.4038 127.784 91.4038C99.6554 91.4038 76.9641 91.2907 77.3039 91.14C80.8907 89.7079 85.9123 87.8235 86.1766 87.8235C86.3276 87.8235 86.4786 88.0873 86.4786 88.3888C86.4786 89.2556 87.1582 89.1049 92.1043 87.2582C94.5961 86.316 96.8237 85.5622 97.0503 85.5622C97.4278 85.5622 108.83 81.7181 117.627 78.59C120.346 77.6478 123.63 76.2911 124.99 75.6127C126.349 74.9343 127.784 74.3313 128.161 74.2936C128.577 74.2936 129.936 74.8213 131.182 75.4996ZM22.7465 97.8861C24.6721 99.8835 28.1079 104.745 27.8058 105.084C27.7303 105.16 27.0507 104.971 26.3334 104.67C24.3323 103.803 21.9159 101.429 20.9343 99.3182C20.0281 97.4338 19.7638 95.7379 20.3302 95.7379C20.4812 95.7379 21.5761 96.7177 22.7465 97.8861ZM236.37 96.567C236.37 97.9237 234.709 101.089 233.312 102.371C231.952 103.652 229.347 105.16 228.517 105.16C227.761 105.16 231.726 99.5443 233.878 97.5469C234.935 96.5293 235.917 95.7379 236.105 95.7379C236.257 95.7379 236.37 96.1147 236.37 96.567ZM109.057 98.3006C109.132 99.582 109.019 100.223 108.679 100.336C108.415 100.411 101.845 100.411 94.1431 100.336L80.0601 100.185V98.2252V96.3032L94.4829 96.3786L108.943 96.4539L109.057 98.3006ZM175.507 96.4916C175.809 96.4916 175.96 97.1323 175.96 98.376C175.96 99.6197 175.809 100.26 175.507 100.26C175.243 100.26 168.636 100.26 160.858 100.298L146.699 100.336L146.586 98.7906C146.511 97.8861 146.511 96.9816 146.624 96.7554C146.775 96.3409 149.531 96.3032 175.507 96.4916ZM139.11 102.71C139.186 106.592 139.828 108.137 142.018 109.607C143.037 110.323 143.641 110.474 145.151 110.323L147.001 110.172L146.775 119.217C146.624 124.192 146.511 134.179 146.511 141.415V154.53H145H143.528L143.415 136.214L143.301 117.898L142.055 116.805L140.847 115.712H127.972C113.776 115.712 113.361 115.788 112.568 118.011C112.304 118.84 112.153 124.908 112.153 136.855V154.53H110.831H109.51V143.865C109.51 137.986 109.396 128.074 109.245 121.818L109.019 110.436H110.831C114.833 110.436 116.646 107.911 116.683 102.409V99.1297L127.859 99.2051L139.035 99.3182L139.11 102.71ZM100.524 130.863C100.448 143.752 100.373 154.342 100.335 154.38C99.9952 154.719 93.0859 154.945 90.1032 154.719L86.4786 154.455V130.938V107.421H93.5767H100.637L100.524 130.863ZM168.862 130.863C168.787 143.752 168.673 154.38 168.598 154.493C168.485 154.568 165.389 154.644 161.726 154.681L155.006 154.719L154.892 131.051L154.817 107.421H161.877H168.975L168.862 130.863ZM21.3873 120.235C22.5955 120.875 24.219 121.931 24.9364 122.609C26.4844 124.041 29.0895 127.508 29.0895 128.074C29.0895 128.564 25.8048 127.659 23.766 126.604C21.0475 125.247 18.8199 122.647 17.9893 119.933C17.6117 118.765 18.6311 118.84 21.3873 120.235ZM238.258 119.669C238.258 120.386 237.012 122.798 236.105 123.815C234.255 125.926 229.8 128.149 227.422 128.149C226.553 128.149 226.553 128.149 227.157 126.905C228.328 124.644 232.254 121.215 234.897 120.122C237.729 118.953 238.258 118.916 238.258 119.669ZM78.2478 131.428C78.3611 142.018 78.3611 144.769 78.2478 151.026L78.1723 154.53H67.4496H56.7269L56.5759 153.475C56.3116 151.629 56.1983 121.818 56.4626 121.403C56.6136 121.139 60.2005 120.989 67.4496 120.989H78.1723L78.2478 131.428ZM199.369 137.759V154.53H188.684H177.961L177.735 149.706C177.584 147.068 177.47 139.531 177.47 132.935V120.989H188.42H199.369V137.759ZM136.128 138.476V154.681L127.746 154.719L119.326 154.757V138.664C119.326 129.845 119.44 122.496 119.591 122.345C119.742 122.232 123.517 122.157 127.972 122.195L136.128 122.308V138.476ZM210.129 138.212C210.62 139.493 211.187 141.302 211.3 142.169L211.526 143.789L209.601 141.905L207.675 140.058V136.817V133.614L208.43 134.744C208.846 135.347 209.601 136.93 210.129 138.212ZM48.3451 137.646C48.3451 140.36 48.3451 140.398 46.9481 141.528C44.1542 143.789 44.1919 143.789 44.4185 142.395C44.6828 140.812 47.5145 134.933 47.9675 134.933C48.1941 134.933 48.3451 136.177 48.3451 137.646ZM27.8436 145.448C29.9957 146.616 33.9978 150.121 33.9978 150.875C33.9978 151.252 31.5814 150.95 28.7497 150.121C24.8231 149.066 18.2158 145.184 18.7444 144.317C18.8954 144.053 20.1414 143.94 22.2557 144.053C25.0497 144.166 25.8425 144.392 27.8436 145.448ZM237.125 144.355C237.918 144.882 236.71 145.825 232.028 148.124C227.535 150.385 220.89 151.968 220.89 150.799C220.89 150.611 221.834 149.593 223.004 148.5C225.307 146.428 227.95 144.92 230.216 144.392C232.179 143.94 236.445 143.903 237.125 144.355ZM48.7226 147.445C48.7226 148.124 48.6094 150.083 48.4584 151.779L48.2318 154.907H42.7194L37.2071 154.87L38.7173 153.551C40.9449 151.591 48.0053 146.239 48.3828 146.239C48.5716 146.239 48.7226 146.805 48.7226 147.445ZM210.62 148.425C215.755 152.307 218.247 154.267 218.247 154.493C218.247 154.644 217.454 154.719 216.472 154.681C215.453 154.681 212.999 154.644 210.998 154.606L207.298 154.53V150.385C207.298 148.086 207.373 146.239 207.524 146.239C207.637 146.239 209.034 147.219 210.62 148.425ZM244.676 161.993C244.676 162.181 243.657 163.199 242.373 164.254L240.07 166.214H127.935H15.7994L13.4963 163.952L11.1555 161.691H127.935C192.12 161.691 244.676 161.842 244.676 161.993ZM129.067 172.997H232.594V179.63C232.594 185.811 232.556 186.263 231.952 186C223.231 182.268 194.574 180.384 139.715 179.932C81.004 179.442 34.3376 181.741 25.1252 185.585C24.3323 185.924 23.6527 186.188 23.5772 186.188C23.3129 186.188 23.4262 173.11 23.6904 172.847C23.8415 172.696 24.3323 172.658 24.7476 172.771C25.1629 172.884 72.0936 172.997 129.067 172.997ZM138.997 188.449H140.847V200.132V211.816H148.134C152.174 211.816 155.534 211.891 155.61 211.966C155.685 212.042 155.723 213.662 155.648 215.547L155.534 218.976H145.34H135.184V203.75C135.184 188.072 135.222 187.846 136.619 188.299C136.921 188.374 137.978 188.449 138.997 188.449ZM88.3287 197.947C90.0654 203.185 91.6134 207.632 91.7644 207.783C92.0287 208.084 92.4441 206.878 96.1064 194.856L97.9942 188.638L101.241 188.525L104.526 188.412L102.638 194.329C101.619 197.607 99.3534 204.504 97.6166 209.705C95.8421 214.868 94.4074 219.165 94.4074 219.24C94.4074 219.315 93.3502 219.353 92.0287 219.353H89.6124L87.1205 212.456C84.3643 204.994 78.9274 189.203 78.9274 188.713C78.9274 188.562 80.3244 188.449 82.0612 188.449H85.1572L88.3287 197.947ZM123.97 199.115C126.009 204.956 128.35 211.552 129.181 213.775C129.973 216.037 130.653 218.109 130.653 218.411C130.653 218.901 130.125 218.976 127.557 218.901L124.423 218.788L123.328 216.037L122.234 213.285L117.325 213.398L112.379 213.511L111.586 216.15L110.793 218.788L107.509 218.901C104.79 218.976 104.224 218.901 104.224 218.449C104.224 218.147 106.338 211.778 108.943 204.278C111.549 196.778 113.663 190.597 113.663 190.522C113.663 190.447 113.814 189.957 114.04 189.429C114.38 188.487 114.531 188.449 117.325 188.449H120.27L123.97 199.115ZM168.787 203.901V219.353H165.955H163.123V203.901V188.449H165.955H168.787V203.901ZM70.4323 195.233C71.716 198.663 74.2457 205.409 76.0202 210.233C77.8325 215.094 79.305 219.315 79.305 219.692C79.305 220.258 78.9274 220.371 76.7753 220.446C75.4161 220.484 74.0947 220.559 73.8681 220.597C73.6416 220.634 72.9242 219.315 72.2446 217.657L71.0364 214.642L65.6373 214.755C62.2015 214.868 60.0872 215.057 59.7851 215.358C59.5209 215.584 58.9168 217.054 58.4259 218.599L57.5198 221.426L54.3483 221.614C52.6115 221.727 51.0635 221.765 50.9125 221.727C50.7615 221.652 51.5921 218.938 52.7248 215.66C54.8014 209.78 57.6331 201.678 60.5025 193.236L62.0505 188.788L65.1087 188.902L68.1292 189.015L70.4323 195.233ZM193.441 190.409C194.612 193.537 203.9 220.974 203.9 221.275C203.9 221.464 202.465 221.614 200.728 221.614H197.519L196.499 218.411C195.858 216.526 195.216 215.132 194.838 215.057C194.536 214.944 191.931 214.755 189.099 214.604L183.889 214.378L183.474 215.434C183.247 216.037 182.719 217.356 182.341 218.411L181.661 220.295L178.565 220.22C176.866 220.144 175.394 220.069 175.318 219.994C175.205 219.843 185.361 192.406 186.532 189.655C186.872 188.902 187.136 188.826 189.854 188.826H192.837L193.441 190.409ZM172.185 227.983C187.325 228.888 199.331 229.981 201.597 230.622C202.465 230.885 202.389 230.998 200.275 232.242C197.368 234.014 175.243 244.981 174.601 244.981C174.563 244.981 171.958 246.111 168.9 247.468C152.174 254.93 128.765 264.955 128.01 264.955C127.633 264.955 126.273 264.465 124.952 263.862C123.63 263.259 119.138 261.299 114.984 259.566C107.471 256.362 103.582 254.666 91.9532 249.578C81.2305 244.905 77.4172 243.096 67.9782 238.385C57.3688 233.071 53.2534 230.772 54.0462 230.509C56.5381 229.755 82.9673 227.946 97.9942 227.494C107.358 227.23 166.068 227.607 172.185 227.983ZM45.5889 235.823C46.5706 236.388 48.9114 237.632 50.7992 238.611C52.7625 239.667 53.933 240.496 53.6309 240.609C53.3289 240.684 51.5543 241.061 49.6665 241.4C47.8165 241.739 44.2297 242.418 41.7755 242.945C39.3214 243.435 37.2448 243.812 37.1693 243.737C37.0938 243.662 37.6602 242.757 38.453 241.739C39.2081 240.684 40.6429 238.687 41.6245 237.33C42.6439 235.936 43.5123 234.805 43.6256 234.805C43.7011 234.805 44.6072 235.257 45.5889 235.823ZM212.961 235.106C212.961 235.257 214.32 237.255 215.944 239.516C217.567 241.815 218.889 243.699 218.851 243.737C218.813 243.775 216.623 243.322 213.98 242.719C211.338 242.116 208.128 241.438 206.845 241.174C205.523 240.948 204.202 240.684 203.9 240.647C203.598 240.571 202.994 240.496 202.578 240.496C202.163 240.458 204.202 239.177 207.109 237.632C212.47 234.805 212.961 234.579 212.961 235.106Z" fill="#102C46"/>
<path d="M64.3358 200.667C63.8449 202.099 63.2786 203.795 63.1276 204.436L62.8633 205.68H65.544C67.0164 205.68 68.2246 205.567 68.2246 205.454C68.2246 204.813 65.8082 198.142 65.5817 198.142C65.4307 198.142 64.8643 199.273 64.3358 200.667Z" fill="#102C46"/>
<path d="M115.873 200.667C115.382 202.099 114.816 203.795 114.665 204.436L114.4 205.68H117.081C118.554 205.68 119.762 205.567 119.762 205.454C119.762 204.813 117.345 198.142 117.119 198.142C116.968 198.142 116.401 199.273 115.873 200.667Z" fill="#102C46"/>
<path d="M188.647 200.667C188.156 202.099 187.59 203.795 187.439 204.436L187.175 205.68H189.855C191.328 205.68 192.536 205.567 192.536 205.454C192.536 204.813 190.12 198.142 189.893 198.142C189.742 198.142 189.176 199.273 188.647 200.667Z" fill="#102C46"/>
<path d="M48.1371 137.364C47.835 137.854 45.6074 144.977 45.6074 145.466C45.6074 145.768 46.4381 145.806 48.5146 145.617C50.1004 145.504 51.4596 145.316 51.5351 145.24C51.7239 145.09 49.0055 137.778 48.6279 137.364C48.4769 137.175 48.2503 137.175 48.1371 137.364Z" fill="#102C46"/>
<path d="M172.468 138.08C171.751 140.002 170.543 143.281 170.165 144.223C169.976 144.713 169.863 145.166 169.901 145.203C169.976 145.241 171.336 145.392 172.959 145.542C176.47 145.844 176.433 145.919 174.696 140.982C173.299 137.025 172.997 136.611 172.468 138.08Z" fill="#102C46"/>
<path d="M77.3909 91.215C77.2138 91.0382 81.6412 89.624 81.6412 89.624L175.325 89.4473L178.512 91.215C178.512 91.215 77.568 91.3918 77.3909 91.215Z" fill="#BFBFBF" stroke="#BFBFBF"/>
<path d="M75.999 234.917H105.999" stroke="#008E4A" stroke-width="3"/>
<path d="M87.999 242.917H105.999" stroke="#008E4A" stroke-width="3"/>
<path d="M119.158 234.008H122.12V240.997C122.12 241.828 121.921 242.547 121.523 243.154C121.129 243.758 120.579 244.225 119.872 244.555C119.165 244.881 118.345 245.045 117.411 245.045C116.47 245.045 115.646 244.881 114.939 244.555C114.233 244.225 113.682 243.758 113.288 243.154C112.897 242.547 112.702 241.828 112.702 240.997V234.008H115.664V240.741C115.664 241.078 115.738 241.38 115.888 241.646C116.037 241.909 116.243 242.115 116.505 242.264C116.772 242.413 117.074 242.488 117.411 242.488C117.752 242.488 118.054 242.413 118.316 242.264C118.579 242.115 118.785 241.909 118.934 241.646C119.084 241.38 119.158 241.078 119.158 240.741V234.008ZM132.966 234.008V244.917H130.495L126.553 239.185H126.489V244.917H123.527V234.008H126.042L129.919 239.718H130.005V234.008H132.966ZM134.367 244.917V234.008H139.097C139.928 234.008 140.626 234.12 141.191 234.343C141.759 234.567 142.187 234.883 142.474 235.292C142.766 235.7 142.911 236.181 142.911 236.735C142.911 237.136 142.822 237.502 142.645 237.832C142.471 238.163 142.226 238.44 141.91 238.663C141.594 238.884 141.224 239.036 140.802 239.122V239.228C141.271 239.246 141.697 239.365 142.08 239.585C142.464 239.802 142.769 240.102 142.996 240.485C143.224 240.865 143.337 241.313 143.337 241.828C143.337 242.424 143.181 242.955 142.869 243.42C142.56 243.885 142.119 244.251 141.548 244.517C140.976 244.784 140.294 244.917 139.502 244.917H134.367ZM137.329 242.552H138.714C139.211 242.552 139.584 242.46 139.832 242.275C140.081 242.087 140.205 241.81 140.205 241.444C140.205 241.188 140.147 240.972 140.029 240.794C139.912 240.617 139.745 240.482 139.529 240.389C139.316 240.297 139.058 240.251 138.756 240.251H137.329V242.552ZM137.329 238.418H138.543C138.803 238.418 139.032 238.378 139.23 238.296C139.429 238.214 139.584 238.097 139.694 237.944C139.808 237.788 139.864 237.598 139.864 237.374C139.864 237.037 139.744 236.78 139.502 236.602C139.261 236.421 138.955 236.33 138.586 236.33H137.329V238.418Z" fill="#008E4A"/>
<path d="M149.999 234.917H164.999H179.999" stroke="#008E4A" stroke-width="3"/>
<path d="M149.999 242.917H158.999H167.999" stroke="#008E4A" stroke-width="3"/>
<defs>
<clipPath id="clip0_214_1500">
<rect width="10.1941" height="10.1756" fill="white" transform="translate(92.0303 39.5723)"/>
</clipPath>
<clipPath id="clip1_214_1500">
<rect width="10.1941" height="10.1756" fill="white" transform="translate(74.1904 55.4004)"/>
</clipPath>
<clipPath id="clip2_214_1500">
<rect width="10.1941" height="10.1756" fill="white" transform="translate(51.5371 96.3857)"/>
</clipPath>
<clipPath id="clip3_214_1500">
<rect width="10.1893" height="10.1805" fill="white" transform="matrix(0.859494 0.511146 -0.512515 0.858678 199.188 96.7568)"/>
</clipPath>
<clipPath id="clip4_214_1500">
<rect width="10.1757" height="10.194" fill="white" transform="matrix(-0.0697092 -0.997567 0.997585 -0.069458 155.098 50.1777)"/>
</clipPath>
<clipPath id="clip5_214_1500">
<rect width="10.1757" height="10.194" fill="white" transform="matrix(-0.0697091 -0.997567 0.997585 -0.0694581 172.157 66.8408)"/>
</clipPath>
</defs>
</svg>
