<svg width="387" height="387" viewBox="0 0 387 387" fill="none" xmlns="http://www.w3.org/2000/svg">
<path d="M120.138 323.598H49.8761C46.2253 323.598 42.7612 321.982 40.4142 319.185L10.4316 283.449C5.5744 277.659 2.89941 270.309 2.89941 262.752V169.734C2.89941 162.177 5.5744 154.826 10.4316 149.037L61.5843 88.0727C73.1278 74.3153 93.8089 72.078 107.686 83.0893C122.302 94.685 124.422 115.965 112.47 130.209L73.5828 176.554V188.781C79.4748 181.248 88.4725 176.282 98.5368 176.005C117.183 175.496 132.489 190.423 132.489 209.026V311.247C132.49 318.068 126.96 323.598 120.138 323.598Z" fill="#F4DDB7"/>
<path d="M86.1943 244.381C93.0152 244.381 98.545 238.852 98.545 232.031V176.006C98.5427 176.006 98.539 176.006 98.5367 176.006C88.616 176.278 79.7385 181.112 73.8428 188.465V232.031C73.8435 238.852 79.3726 244.381 86.1943 244.381Z" fill="#FFCD74"/>
<path d="M139.399 385.255H12.3507C5.52987 385.255 0 379.725 0 372.904V311.248C0 304.427 5.52987 298.897 12.3507 298.897H139.399C146.219 298.897 151.749 304.427 151.749 311.248V372.904C151.75 379.724 146.22 385.255 139.399 385.255Z" fill="#102C46"/>
<path d="M223.528 135.121L193.5 119.335L163.472 135.121C154.43 139.876 143.824 132.176 145.551 122.101L151.286 88.6646L126.994 64.985C119.678 57.8535 123.723 45.3878 133.839 43.9184L167.41 39.0409L182.424 8.61904C186.946 -0.543483 200.051 -0.544994 204.575 8.61904L219.588 39.0409L253.159 43.9184C263.27 45.3886 267.323 57.8512 260.004 64.985L235.712 88.6646L241.447 122.101C243.187 132.235 232.512 139.843 223.528 135.121Z" fill="#A9C5FC"/>
<path d="M254.51 311.247V209.026C254.51 190.445 269.795 175.495 288.462 176.005C298.526 176.281 307.524 181.248 313.416 188.781V176.554L274.528 130.208C262.584 115.974 264.686 94.6933 279.313 83.0886C293.19 72.0773 313.872 74.3146 325.414 88.072L376.567 149.037C381.425 154.826 384.1 162.176 384.1 169.734V262.752C384.1 270.309 381.425 277.659 376.567 283.449L346.585 319.185C344.238 321.983 340.774 323.598 337.123 323.598H266.861C260.04 323.598 254.51 318.068 254.51 311.247Z" fill="#F4DDB7"/>
<path d="M300.806 244.381C293.985 244.381 288.455 238.852 288.455 232.031V176.006C288.457 176.006 288.461 176.006 288.463 176.006C298.384 176.278 307.262 181.112 313.157 188.465V232.031C313.157 238.852 307.627 244.381 300.806 244.381Z" fill="#FFCD74"/>
<path d="M235.25 372.903V311.247C235.25 304.426 240.78 298.896 247.601 298.896H374.649C381.47 298.896 387 304.426 387 311.247V372.903C387 379.724 381.47 385.254 374.649 385.254H247.601C240.78 385.255 235.25 379.724 235.25 372.903Z" fill="#102C46"/>
<path d="M253.161 43.9177L219.59 39.0402L204.577 8.61833C202.315 4.03555 197.906 1.74454 193.499 1.7453V119.336L193.501 119.334L223.529 135.12C232.513 139.842 243.188 132.235 241.451 122.1L235.716 88.6638L260.009 64.9843C267.325 57.8505 263.272 45.3879 253.161 43.9177Z" fill="#008E4A"/>
</svg>
