<svg width="366" height="366" viewBox="0 0 366 366" fill="none" xmlns="http://www.w3.org/2000/svg">
<path d="M320.25 297.375H45.75V175.375L183 45.75L320.25 175.375V297.375Z" fill="#102C46"/>
<path d="M297.375 160.125L259.25 122V68.625H297.375V160.125ZM45.75 297.375H320.25V335.5H45.75V297.375Z" fill="#A9C5FC"/>
<path d="M183 32.7875L30.5 174.612L45.75 191.387L183 64.05L320.25 191.387L335.5 174.612L183 32.7875Z" fill="#008E4A"/>
<path d="M137.25 213.5H228.75V335.5H137.25V213.5Z" fill="#008E4A"/>
<path d="M160.125 129.625H205.875V175.375H160.125V129.625Z" fill="#E8E8E8"/>
<path d="M209.688 270.688C207.4 270.688 205.875 272.213 205.875 274.5V289.75C205.875 292.038 207.4 293.563 209.688 293.562C211.975 293.562 213.5 292.038 213.5 289.75V274.5C213.5 272.213 211.975 270.688 209.688 270.688Z" fill="#FF8A65"/>
</svg>
