<svg width="6rem" height="auto" viewBox="0 0 332 354" fill="none" xmlns="http://www.w3.org/2000/svg">
<path d="M290.82 247.604L238.919 237.906C238.584 237.847 238.243 237.814 237.903 237.814H94.0548C93.7145 237.814 93.3742 237.847 93.0388 237.906L40.6683 247.718C13.9671 255.196 0 281.497 0 303.617V333.933C0 344.998 9.92554 354 22.1305 354H309.827C322.032 354 331.958 344.998 331.958 333.933V303.617C331.958 281.497 317.992 255.196 290.82 247.604Z" fill="#102C46"/>
<path d="M192.795 354L182.501 292.233C182.058 289.564 179.751 287.608 177.044 287.608H154.914C152.207 287.608 149.9 289.564 149.456 292.233L139.162 354H192.795Z" fill="#A9C5FC"/>
<path d="M154.914 287.608C153.5 287.608 152.215 288.16 151.227 289.051L188.12 325.947L184.991 307.17L165.431 287.608H154.914Z" fill="#008E4A"/>
<path d="M188.072 260.047C188.067 256.994 185.592 254.526 182.54 254.526H154.876C152.78 254.526 150.867 255.709 149.927 257.584L144.395 268.649C144.005 269.421 143.806 270.276 143.811 271.145L143.849 282.08C143.849 291.228 151.295 298.672 160.447 298.672H171.512C180.665 298.672 188.11 291.227 188.11 282.064L188.072 260.047Z" fill="#008E4A"/>
<path d="M168.638 238.63L118.882 210.854C116.467 209.497 113.43 210.157 111.772 212.35L90.8896 240.013C89.4628 241.904 89.393 244.493 90.7222 246.449L124.453 296.237C126.312 298.976 129.267 300.726 132.557 301.04C132.914 301.072 133.27 301.088 133.622 301.088C136.539 301.088 139.338 299.943 141.429 297.857C141.569 297.717 141.704 297.565 141.829 297.409L164.753 268.946C165.001 268.643 165.218 268.309 165.391 267.957L170.885 257.006C171.275 256.239 171.474 255.384 171.474 254.526V243.46C171.474 241.456 170.388 239.608 168.638 238.63Z" fill="#B4B6BC"/>
<path d="M163.245 238.63L213.001 210.854C215.416 209.497 218.453 210.157 220.111 212.35L240.993 240.013C242.42 241.904 242.49 244.493 241.161 246.449L207.43 296.237C205.571 298.976 202.616 300.726 199.326 301.04C198.969 301.072 198.613 301.088 198.261 301.088C195.344 301.088 192.545 299.943 190.454 297.857C190.314 297.717 190.179 297.565 190.054 297.409L167.131 268.946C166.882 268.643 166.666 268.309 166.493 267.957L160.998 257.006C160.609 256.239 160.409 255.384 160.409 254.526V243.46C160.409 241.456 161.495 239.608 163.245 238.63Z" fill="#B4B6BC"/>
<path d="M243.399 105.144L232.485 94.0791C232.485 94.0791 194.988 83.9357 116.148 94.0791L82.9521 105.144C82.9521 112.752 82.9521 117.282 82.9521 143.873C82.9521 198.873 120.108 243.46 165.942 243.46C211.775 243.46 248.931 198.873 248.931 143.873C248.931 134.947 248.931 117.939 248.931 105.144C247.499 106.745 243.399 105.144 243.399 105.144Z" fill="#FFDCAD"/>
<path d="M132.632 166.003C144.854 166.003 154.762 156.095 154.762 143.873C154.762 131.65 144.854 121.742 132.632 121.742C120.409 121.742 110.501 131.65 110.501 143.873C110.501 156.095 120.409 166.003 132.632 166.003Z" fill="#AEEFFF"/>
<path d="M132.783 121.742C126.711 121.742 121.216 124.195 117.218 128.155L148.501 159.438C152.461 155.44 154.914 149.945 154.914 143.873C154.914 131.651 145.006 121.742 132.783 121.742Z" fill="white"/>
<path d="M199.023 166.003C211.245 166.003 221.154 156.095 221.154 143.873C221.154 131.65 211.245 121.742 199.023 121.742C186.801 121.742 176.893 131.65 176.893 143.873C176.893 156.095 186.801 166.003 199.023 166.003Z" fill="#AEEFFF"/>
<path d="M199.175 121.742C193.103 121.742 187.607 124.195 183.609 128.155L214.892 159.438C218.853 155.44 221.305 149.945 221.305 143.873C221.305 131.651 211.398 121.742 199.175 121.742Z" fill="white"/>
<path d="M177.158 149.405C174.1 149.405 171.626 146.931 171.626 143.873C171.626 140.82 169.146 138.34 166.093 138.34C163.04 138.34 160.56 140.82 160.56 143.873C160.56 146.931 158.086 149.405 155.028 149.405C151.97 149.405 149.495 146.931 149.495 143.873C149.495 134.72 156.941 127.275 166.093 127.275C175.245 127.275 182.691 134.72 182.691 143.873C182.691 146.931 180.216 149.405 177.158 149.405Z" fill="#5C546A"/>
<path d="M110.767 143.873H82.9521C79.8939 143.873 77.4194 141.398 77.4194 138.34C77.4194 135.282 79.8939 132.808 82.9521 132.808H110.767C113.825 132.808 116.299 135.282 116.299 138.34C116.299 141.398 113.824 143.873 110.767 143.873Z" fill="#5C546A"/>
<path d="M248.931 143.873H221.419C218.361 143.873 215.887 141.398 215.887 138.34C215.887 135.282 218.361 132.808 221.419 132.808H248.931C251.989 132.808 254.464 135.282 254.464 138.34C254.464 141.398 251.989 143.873 248.931 143.873Z" fill="#5C546A"/>
<path d="M132.898 171.536C117.645 171.536 105.234 159.126 105.234 143.873C105.234 128.62 117.645 116.21 132.898 116.21C148.15 116.21 160.561 128.62 160.561 143.873C160.561 159.126 148.15 171.536 132.898 171.536ZM132.898 127.275C123.745 127.275 116.3 134.721 116.3 143.873C116.3 153.025 123.745 160.471 132.898 160.471C142.05 160.471 149.495 153.025 149.495 143.873C149.495 134.721 142.05 127.275 132.898 127.275Z" fill="#868491"/>
<path d="M199.289 171.536C184.036 171.536 171.626 159.126 171.626 143.873C171.626 128.62 184.036 116.21 199.289 116.21C214.542 116.21 226.952 128.62 226.952 143.873C226.952 159.126 214.541 171.536 199.289 171.536ZM199.289 127.275C190.137 127.275 182.691 134.721 182.691 143.873C182.691 153.025 190.137 160.471 199.289 160.471C208.442 160.471 215.887 153.025 215.887 143.873C215.886 134.721 208.442 127.275 199.289 127.275Z" fill="#868491"/>
<path d="M142.39 195.461C139.391 195.461 136.446 194.488 134.02 191.511C132.097 189.139 132.453 185.654 134.825 183.725C137.203 181.802 140.682 182.158 142.611 184.53C143.184 184.617 146.155 183.585 148.084 182.926C153.871 180.953 161.797 178.246 169.189 183.515C171.68 185.287 172.258 188.74 170.485 191.23C168.713 193.71 165.26 194.294 162.77 192.527C160.192 190.685 156.849 191.63 151.651 193.402C148.895 194.342 145.615 195.461 142.39 195.461Z" fill="white"/>
<path d="M189.569 195.461C186.349 195.461 183.064 194.342 180.308 193.402C175.105 191.635 171.761 190.684 169.189 192.526C166.703 194.304 163.245 193.715 161.473 191.229C159.701 188.738 160.279 185.286 162.77 183.514C170.151 178.257 178.087 180.953 183.874 182.925C185.803 183.584 188.71 184.627 189.634 184.379C191.557 182.012 194.896 181.726 197.274 183.649C199.646 185.572 199.862 189.133 197.938 191.505C195.517 194.488 192.568 195.461 189.569 195.461Z" fill="white"/>
<path d="M188.067 209.805C187.883 206.887 185.468 204.618 182.545 204.618H149.414C146.491 204.618 144.076 206.887 143.893 209.805C143.79 211.459 141.57 250.608 161.749 274.576C162.798 275.824 164.348 276.543 165.98 276.543C167.611 276.543 169.162 275.824 170.21 274.576C190.39 250.608 188.169 211.459 188.067 209.805Z" fill="white"/>
<path d="M276.632 143.759C273.574 143.759 271.099 141.285 271.099 138.227V72.2619C271.099 69.2037 273.574 66.7292 276.632 66.7292C279.69 66.7292 282.164 69.2037 282.164 72.2619V138.227C282.164 141.285 279.69 143.759 276.632 143.759Z" fill="#5C546A"/>
<path d="M294.613 41.719L182.075 3.13648C169.891 -1.04549 156.454 -1.04549 144.259 3.13648L31.7212 41.719C25.8372 43.7398 22.0391 49.056 22.0391 55.2753C22.0391 61.4947 25.8372 66.8109 31.7212 68.8317L86.7501 87.6986C87.3283 87.893 87.9334 87.996 88.5441 87.996C88.5655 87.996 88.5925 87.996 88.6146 87.996L243.507 86.0617C244.091 86.0561 244.674 85.9538 245.23 85.7643L294.613 68.8317C300.497 66.8109 304.295 61.4947 304.295 55.2753C304.295 49.056 300.497 43.7398 294.613 41.719Z" fill="#102C46"/>
<path d="M147.003 97.6477C152.87 97.2217 159.159 96.9589 165.98 96.9589C172.8 96.9589 179.089 97.221 184.956 97.6477C207.486 98.9492 234.255 102.673 248.969 110.677V66.416C248.969 47.4086 205.951 38.7528 165.98 38.7528C126.009 38.7528 82.9902 47.4086 82.9902 66.416V110.677C97.705 102.673 124.473 98.9492 147.003 97.6477Z" fill="#A9C5FC"/>
<path d="M165.979 69.4092C141.97 69.4092 102.195 72.5669 82.9893 83.0139V97.0724C82.9893 92.2527 112.074 80.4744 165.979 80.4744C219.884 80.4744 248.968 92.2527 248.968 97.0724V83.0139C229.763 72.5676 189.988 69.4092 165.979 69.4092Z" fill="#008E4A"/>
<path d="M165.979 38.7528C165.967 38.7528 165.953 38.7535 165.941 38.7535V96.9596C165.954 96.9596 165.966 96.9589 165.979 96.9589C172.799 96.9589 179.089 97.221 184.955 97.6477C207.485 98.9492 234.254 102.673 248.968 110.677V66.416C248.968 47.4086 205.95 38.7528 165.979 38.7528Z" fill="#A9C5FC"/>
<path d="M165.941 69.4099V80.4751C165.955 80.4751 165.966 80.4744 165.979 80.4744C219.885 80.4744 248.969 92.2527 248.969 97.0724V83.0139C229.763 72.5676 189.988 69.4092 165.979 69.4092C165.967 69.4092 165.953 69.4099 165.941 69.4099Z" fill="#008E4A"/>
<path d="M282.127 177.069H271.062C268.007 177.069 265.529 174.591 265.529 171.536V149.405C265.529 143.294 270.483 138.34 276.595 138.34C282.706 138.34 287.66 143.294 287.66 149.405V171.536C287.66 174.591 285.183 177.069 282.127 177.069Z" fill="#FFE671"/>
<path d="M265.529 149.405V171.536C265.529 174.591 268.007 177.069 271.062 177.069H276.595V138.34C270.483 138.34 265.529 143.294 265.529 149.405Z" fill="#FFCD00"/>
<path d="M55.3275 317.008C55.3275 305.269 50.6642 294.011 42.3639 285.71L17.7948 261.141C6.07394 272.76 0.000488281 289.076 0.000488281 303.617V333.933C0.000488281 344.998 9.92603 354 22.131 354H55.3282L55.3275 317.008Z" fill="#B4B6BC"/>
<path d="M314.115 261.193L289.598 285.711C281.297 294.011 276.634 305.269 276.634 317.008V354H309.828C322.033 354 331.959 344.999 331.959 333.933V303.617C331.958 289.111 325.912 272.839 314.115 261.193Z" fill="#B4B6BC"/>
<path d="M147.46 304.213L145.225 317.625L181.595 353.999H192.796L191.907 348.664L147.46 304.213Z" fill="#008E4A"/>
<path d="M140.286 347.264L147.02 353.999H162.667L142.521 333.852L140.286 347.264Z" fill="#008E4A"/>
</svg>
