<svg width="367" height="367" viewBox="0 0 367 367" fill="none" xmlns="http://www.w3.org/2000/svg">
<path d="M299.005 367H65.3151C56.9006 367 50.0781 360.178 50.0781 351.763V15.237C50.0781 6.82176 56.8999 0 65.3151 0H299.005C318.609 0 334.558 15.9487 334.558 35.5524V331.448C334.558 351.051 318.609 367 299.005 367Z" fill="#102C46"/>
<path d="M299.005 0H192.319V367H299.005C318.609 367 334.558 351.051 334.558 331.448V35.5524C334.558 15.9487 318.609 0 299.005 0Z" fill="#008E4A"/>
<path d="M192.319 198.541C155.916 198.541 126.301 168.925 126.301 132.523C126.301 96.121 155.916 66.5051 192.319 66.5051C228.721 66.5051 258.337 96.1203 258.337 132.523C258.336 168.925 228.72 198.541 192.319 198.541Z" fill="#E8E8E8"/>
<path d="M237.506 259.371H147.131C138.717 259.371 131.895 252.55 131.895 244.135C131.895 235.72 138.716 228.898 147.131 228.898H237.506C245.92 228.898 252.743 235.719 252.743 244.135C252.743 252.55 245.921 259.371 237.506 259.371Z" fill="#E8E8E8"/>
<path d="M237.506 300.495H147.131C138.717 300.495 131.895 293.673 131.895 285.258C131.895 276.843 138.716 270.021 147.131 270.021H237.506C245.92 270.021 252.743 276.843 252.743 285.258C252.743 293.672 245.921 300.495 237.506 300.495Z" fill="#E8E8E8"/>
<path d="M82.9522 77.08H47.6793C39.2649 77.08 32.4424 70.2582 32.4424 61.843C32.4424 53.4278 39.2641 46.6061 47.6793 46.6061H82.9522C91.3667 46.6061 98.1891 53.4278 98.1891 61.843C98.1891 70.2582 91.3667 77.08 82.9522 77.08Z" fill="#A9C5FC"/>
<path d="M82.9522 137.909H47.6793C39.2649 137.909 32.4424 131.087 32.4424 122.672C32.4424 114.257 39.2641 107.435 47.6793 107.435H82.9522C91.3667 107.435 98.1891 114.257 98.1891 122.672C98.1891 131.087 91.3667 137.909 82.9522 137.909Z" fill="#A9C5FC"/>
<path d="M82.9522 198.736H47.6793C39.2649 198.736 32.4424 191.914 32.4424 183.499C32.4424 175.084 39.2641 168.262 47.6793 168.262H82.9522C91.3667 168.262 98.1891 175.084 98.1891 183.499C98.1891 191.915 91.3667 198.736 82.9522 198.736Z" fill="#A9C5FC"/>
<path d="M82.9522 259.564H47.6793C39.2649 259.564 32.4424 252.742 32.4424 244.327C32.4424 235.913 39.2641 229.09 47.6793 229.09H82.9522C91.3667 229.09 98.1891 235.912 98.1891 244.327C98.1891 252.742 91.3667 259.564 82.9522 259.564Z" fill="#A9C5FC"/>
<path d="M82.9522 320.392H47.6793C39.2649 320.392 32.4424 313.571 32.4424 305.155C32.4424 296.74 39.2641 289.918 47.6793 289.918H82.9522C91.3667 289.918 98.1891 296.74 98.1891 305.155C98.1891 313.571 91.3667 320.392 82.9522 320.392Z" fill="#A9C5FC"/>
<path d="M192.319 66.5051V198.54C228.721 198.54 258.337 168.925 258.337 132.522C258.336 96.1203 228.72 66.5051 192.319 66.5051Z" fill="#E8E8E8"/>
<path d="M237.506 228.898H192.319V259.371H237.506C245.92 259.371 252.743 252.55 252.743 244.135C252.743 235.72 245.921 228.898 237.506 228.898Z" fill="#E8E8E8"/>
<path d="M237.506 270.021H192.319V300.494H237.506C245.92 300.494 252.743 293.672 252.743 285.257C252.743 276.843 245.921 270.021 237.506 270.021Z" fill="#E8E8E8"/>
</svg>
