<svg width="44" height="42" viewBox="0 0 44 42" fill="none" xmlns="http://www.w3.org/2000/svg">
<path d="M22.0361 5.48389C15.9678 5.48389 11.0361 10.0754 11.0361 15.7253V20.6582C11.0361 21.6994 10.5594 23.2868 9.9911 24.1744L7.88276 27.4346C6.5811 29.4487 7.47943 31.6848 9.86276 32.4358C17.7644 34.8937 26.2894 34.8937 34.1911 32.4358C36.4094 31.753 37.3811 29.3122 36.1711 27.4346L34.0628 24.1744C33.5128 23.2868 33.0361 21.6994 33.0361 20.6582V15.7253C33.0361 10.0925 28.0861 5.48389 22.0361 5.48389Z" stroke="#4D4D4D" stroke-width="3" stroke-miterlimit="10" stroke-linecap="round"/>
<path d="M25.4279 5.9793C24.8595 5.82568 24.2729 5.7062 23.6679 5.63792C21.9079 5.4331 20.2212 5.55258 18.6445 5.9793C19.1762 4.7162 20.4962 3.82861 22.0362 3.82861C23.5762 3.82861 24.8962 4.7162 25.4279 5.9793Z" stroke="#4D4D4D" stroke-width="3" stroke-miterlimit="10" stroke-linecap="round" stroke-linejoin="round"/>
<path opacity="0.4" d="M27.5371 33.0503C27.5371 35.8667 25.0621 38.171 22.0371 38.171C20.5338 38.171 19.1404 37.5906 18.1504 36.6689C17.1604 35.7472 16.5371 34.4499 16.5371 33.0503" stroke="#4D4D4D" stroke-width="3" stroke-miterlimit="10"/>
</svg>
